<?xml version="1.0" encoding="utf-8"?>
<!-- Generator: Adobe Illustrator 21.0.0, SVG Export Plug-In . SVG Version: 6.00 Build 0)  -->
<svg version="1.1" id="Layer_1" xmlns="http://www.w3.org/2000/svg" xmlns:xlink="http://www.w3.org/1999/xlink" x="0px" y="0px"
	 viewBox="0 0 51.6 17.9" enable-background="new 0 0 51.6 17.9" xml:space="preserve">
<g>
	<path fill="#FFFFFF" stroke="#010101" stroke-width="4" stroke-miterlimit="10" d="M49.6,9c0,3.8-36.8,7-40.7,7s-7-3.1-7-7
		s3.1-7,7-7S49.6,5.1,49.6,9z"/>
	<path fill="#AA6828" d="M49.6,9c0,3.8-36.8,7-40.7,7s-7-3.1-7-7s3.1-7,7-7S49.6,5.1,49.6,9z"/>
	<path fill="#E48925" d="M9,2C8.2,2,7.6,2.1,6.9,2.4c-1.8,1.2-3,3.2-3,5.5c0,3.6,2.9,6.6,6.6,6.6c3.6,0,37.8-2.9,38.3-6.5
		C43,4.6,12.5,2,9,2z"/>
</g>
</svg>
