<?xml version="1.0" encoding="utf-8"?>
<!-- Generator: Adobe Illustrator 21.0.0, SVG Export Plug-In . SVG Version: 6.00 Build 0)  -->
<svg version="1.1" xmlns="http://www.w3.org/2000/svg" xmlns:xlink="http://www.w3.org/1999/xlink" x="0px" y="0px"
	 viewBox="0 0 167.7 168.2" style="enable-background:new 0 0 167.7 168.2;" xml:space="preserve">
<g id="FreeVector.com_BG">
</g>
<g id="FreeVector.com_License">
</g>
<g id="Vector_Graphics">
	<g>
		<g>
			
				<polygon style="fill:#971A1E;stroke:#231F20;stroke-width:8;stroke-linecap:round;stroke-linejoin:round;stroke-miterlimit:10;" points="
				48.3,67.5 49,83 162.8,58.6 163.7,45.1 			"/>
			
				<polygon style="fill:#C1272D;stroke:#231F20;stroke-width:8;stroke-linecap:round;stroke-linejoin:round;stroke-miterlimit:10;" points="
				4,28.3 48.3,67.8 163.7,45.1 102,13.1 			"/>
			
				<polygon style="fill:#750B0D;stroke:#231F20;stroke-width:8;stroke-linecap:round;stroke-linejoin:round;stroke-miterlimit:10;" points="
				5,40.7 4,28.1 48.4,67.3 49.1,82.6 			"/>
			
				<polygon style="fill:#C1272D;stroke:#231F20;stroke-width:8;stroke-linecap:round;stroke-linejoin:round;stroke-miterlimit:10;" points="
				160.6,59.1 154.3,134.4 52.4,164.2 49,82.6 			"/>
			
				<polygon style="fill:#971A1E;stroke:#231F20;stroke-width:8;stroke-linecap:round;stroke-linejoin:round;stroke-miterlimit:10;" points="
				7.1,42.9 12.2,111.2 52.5,164.2 49.1,82.6 			"/>
		</g>
		<g>
			
				<polygon style="fill:#0B431C;stroke:#231F20;stroke-width:8;stroke-linecap:round;stroke-linejoin:round;stroke-miterlimit:10;" points="
				19.2,41.7 26,129.8 34,140.2 27.5,49 			"/>
			
				<polygon style="fill:#225C2E;stroke:#231F20;stroke-width:8;stroke-linecap:round;stroke-linejoin:round;stroke-miterlimit:10;" points="
				136.4,30.8 27.5,49 19.2,41.7 124.5,24.8 			"/>
			
				<polygon style="fill:#225C2E;stroke:#231F20;stroke-width:8;stroke-linecap:round;stroke-linejoin:round;stroke-miterlimit:10;" points="
				96.2,151.3 116.8,145.3 120.4,67.3 98.4,72.2 			"/>
			
				<polygon style="fill:#0B431C;stroke:#231F20;stroke-width:8;stroke-linecap:round;stroke-linejoin:round;stroke-miterlimit:10;" points="
				98.6,57.4 121.1,53.1 120.9,67.3 98.4,72.2 			"/>
			
				<polygon style="fill:#225C2E;stroke:#231F20;stroke-width:8;stroke-linecap:round;stroke-linejoin:round;stroke-miterlimit:10;" points="
				48.8,21.2 98.6,57.4 121.1,53.1 68.4,18.3 			"/>
			<path style="fill:#0B431C;stroke:#231F20;stroke-width:8;stroke-linecap:round;stroke-linejoin:round;stroke-miterlimit:10;" d="
				M91.3,36.5L80.2,47.9c0,0-2.5,2.7-3.1-0.9c0,0-0.4-4.5,0.2-6.5c0.5-2,3.5-7.3,6.7-7.3C84,33.2,87.7,31.2,91.3,36.5z"/>
			<path style="fill:#0B431C;stroke:#231F20;stroke-width:8;stroke-linecap:round;stroke-linejoin:round;stroke-miterlimit:10;" d="
				M57.4,32c0,0-2.6-2.1-5.8-3.3c-10.3-3.8-12.2-2.4-12.2-2.4s-5,6.8,1.3,8.5c8,2.2,13.1,1.3,13.1,1.3L57.4,32z"/>
			<path style="fill:#316E39;stroke:#231F20;stroke-width:8;stroke-linecap:round;stroke-linejoin:round;stroke-miterlimit:10;" d="
				M65.9,9.3l23.8,1.8c0,0-2,2.8-2.4,7.8c-0.3,3.5-0.4,9.5,3.1,15.2c0,0-3.7-2.2-5.9-0.9l-16.9-2c0,0-3.8-3.1-4-8
				C63.5,18.3,64.1,14.7,65.9,9.3z"/>
			<path style="fill:#0B431C;stroke:#231F20;stroke-width:8;stroke-linecap:round;stroke-linejoin:round;stroke-miterlimit:10;" d="
				M115.5,42.7h-13.7L87.1,41c0,0,4.5-3.7,7.6-5c3.1-1.3,11.1-0.6,16-0.8C115.6,35,119,35.4,115.5,42.7z"/>
			<path style="fill:#0B431C;stroke:#231F20;stroke-width:8;stroke-linecap:round;stroke-linejoin:round;stroke-miterlimit:10;" d="
				M91.3,36.5c0,0,6.7-6.9,7.3-7.8c0.5-0.9,3.6-5.1,4-6.9c0.4-1.8,0.4-8.7-2-6.2c-2.4,2.5-9.3,20.3-9.3,20.3V36.5z"/>
			<path style="fill:#225C2E;stroke:#231F20;stroke-width:8;stroke-linecap:round;stroke-linejoin:round;stroke-miterlimit:10;" d="
				M54.5,46.8c0,0,23.4,2.7,24.1,2.4c0,0-2.4-0.2-1.3-8.7c0,0,1.8-4.9,5.6-7.3c0,0-23.2-2.9-24-2.5C59,30.7,48.3,38.9,54.5,46.8z"/>
			<path style="fill:#0B431C;stroke:#231F20;stroke-width:8;stroke-linecap:round;stroke-linejoin:round;stroke-miterlimit:10;" d="
				M88.6,11.1c0,0,3.7-3.4,2.7,25.4l-2.4-2.7C88.9,33.8,82.5,21.8,88.6,11.1z"/>
			<path style="fill:#3A7C42;stroke:#231F20;stroke-width:8;stroke-linecap:round;stroke-linejoin:round;stroke-miterlimit:10;" d="
				M70.3,9.4c0,0-0.2-3.4,1.4-5.4l23.2,2c0,0-3,1.3-3.6,17.6c0,0-0.3-13.9-2.8-12.5L70.3,9.4z"/>
			<path style="fill:#0B431C;stroke:#231F20;stroke-width:8;stroke-linecap:round;stroke-linejoin:round;stroke-miterlimit:10;" d="
				M94.9,6c0,0,4.9,7.1-3.6,30.5C91.3,36.5,90.4,8.7,94.9,6z"/>
			<path style="fill:#316E39;stroke:#231F20;stroke-width:8;stroke-linecap:round;stroke-linejoin:round;stroke-miterlimit:10;" d="
				M115.5,42.7l7.1-9.7c0,0,2.8-8.5-2.8-7.9c0,0-19.4,2.3-22.8,5.6L87.1,41c0,0,7.7-7.3,21.4-8.5C108.6,32.5,120.8,32.6,115.5,42.7z
				"/>
			<path style="fill:#316E39;stroke:#231F20;stroke-width:8;stroke-linecap:round;stroke-linejoin:round;stroke-miterlimit:10;" d="
				M39.4,26.3l9.4-7.3c0,0,11.6-0.2,13.7,5.1c0,0,1.6,5.2,4.2,7.1L59,30.7L57.5,32C57.5,32,48.7,23.8,39.4,26.3z"/>
			<path style="fill:#225C2E;stroke:#231F20;stroke-width:8;stroke-linecap:round;stroke-linejoin:round;stroke-miterlimit:10;" d="
				M101.4,15h-5.1c0,0-0.7,7.4-3.4,16.8C92.9,31.8,99.1,16.2,101.4,15z"/>
		</g>
		<g>
			<polygon style="fill:#971A1E;" points="48.3,67.5 49,83 162.8,58.6 163.7,45.1 			"/>
			<polygon style="fill:#C1272D;" points="4,28.3 48.3,67.8 163.7,45.1 102,13.1 			"/>
			<polygon style="fill:#750B0D;" points="5,40.7 4,28.1 48.4,67.3 49.1,82.6 			"/>
			<polygon style="fill:#C1272D;" points="160.6,59.1 154.3,134.4 52.4,164.2 49,82.6 			"/>
			<polygon style="fill:#971A1E;" points="7.1,42.9 12.2,111.2 52.5,164.2 49.1,82.6 			"/>
		</g>
		<g>
			<polygon style="fill:#0B431C;" points="19.2,41.7 26,129.8 34,140.2 27.5,49 			"/>
			<polygon style="fill:#225C2E;" points="136.4,30.8 27.5,49 19.2,41.7 124.5,24.8 			"/>
			<polygon style="fill:#225C2E;" points="96.2,151.3 116.8,145.3 120.4,67.3 98.4,72.2 			"/>
			<polygon style="fill:#0B431C;" points="98.6,57.4 121.1,53.1 120.9,67.3 98.4,72.2 			"/>
			<polygon style="fill:#225C2E;" points="48.8,21.2 98.6,57.4 121.1,53.1 68.4,18.3 			"/>
			<path style="fill:#0B431C;" d="M91.3,36.5L80.2,47.9c0,0-2.5,2.7-3.1-0.9c0,0-0.4-4.5,0.2-6.5c0.5-2,3.5-7.3,6.7-7.3
				C84,33.2,87.7,31.2,91.3,36.5z"/>
			<path style="fill:#0B431C;" d="M57.4,32c0,0-2.6-2.1-5.8-3.3c-10.3-3.8-12.2-2.4-12.2-2.4s-5,6.8,1.3,8.5
				c8,2.2,13.1,1.3,13.1,1.3L57.4,32z"/>
			<path style="fill:#316E39;" d="M65.9,9.3l23.8,1.8c0,0-2,2.8-2.4,7.8c-0.3,3.5-0.4,9.5,3.1,15.2c0,0-3.7-2.2-5.9-0.9l-16.9-2
				c0,0-3.8-3.1-4-8C63.5,18.3,64.1,14.7,65.9,9.3z"/>
			<path style="fill:#0B431C;" d="M115.5,42.7h-13.7L87.1,41c0,0,4.5-3.7,7.6-5c3.1-1.3,11.1-0.6,16-0.8
				C115.6,35,119,35.4,115.5,42.7z"/>
			<path style="fill:#0B431C;" d="M91.3,36.5c0,0,6.7-6.9,7.3-7.8c0.5-0.9,3.6-5.1,4-6.9c0.4-1.8,0.4-8.7-2-6.2
				c-2.4,2.5-9.3,20.3-9.3,20.3V36.5z"/>
			<path style="fill:#225C2E;" d="M54.5,46.8c0,0,23.4,2.7,24.1,2.4c0,0-2.4-0.2-1.3-8.7c0,0,1.8-4.9,5.6-7.3c0,0-23.2-2.9-24-2.5
				C59,30.7,48.3,38.9,54.5,46.8z"/>
			<path style="fill:#0B431C;" d="M88.6,11.1c0,0,3.7-3.4,2.7,25.4l-2.4-2.7C88.9,33.8,82.5,21.8,88.6,11.1z"/>
			<path style="fill:#3A7C42;" d="M70.3,9.4c0,0-0.2-3.4,1.4-5.4l23.2,2c0,0-3,1.3-3.6,17.6c0,0-0.3-13.9-2.8-12.5L70.3,9.4z"/>
			<path style="fill:#0B431C;" d="M94.9,6c0,0,4.9,7.1-3.6,30.5C91.3,36.5,90.4,8.7,94.9,6z"/>
			<path style="fill:#316E39;" d="M115.5,42.7l7.1-9.7c0,0,2.8-8.5-2.8-7.9c0,0-19.4,2.3-22.8,5.6L87.1,41c0,0,7.7-7.3,21.4-8.5
				C108.6,32.5,120.8,32.6,115.5,42.7z"/>
			<path style="fill:#316E39;" d="M39.4,26.3l9.4-7.3c0,0,11.6-0.2,13.7,5.1c0,0,1.6,5.2,4.2,7.1L59,30.7L57.5,32
				C57.5,32,48.7,23.8,39.4,26.3z"/>
			<path style="fill:#225C2E;" d="M101.4,15h-5.1c0,0-0.7,7.4-3.4,16.8C92.9,31.8,99.1,16.2,101.4,15z"/>
		</g>
		<g>
			<polygon style="fill:#971A1E;" points="48.3,67.5 49,83 162.8,58.6 163.7,45.1 			"/>
			<polygon style="fill:#C1272D;" points="4,28.3 48.3,67.8 163.7,45.1 102,13.1 			"/>
			<polygon style="fill:#750B0D;" points="5,40.7 4,28.1 48.4,67.3 49.1,82.6 			"/>
			<polygon style="fill:#C1272D;" points="160.6,59.1 154.3,134.4 52.4,164.2 49,82.6 			"/>
			<polygon style="fill:#971A1E;" points="7.1,42.9 12.2,111.2 52.5,164.2 49.1,82.6 			"/>
		</g>
		<g>
			
				<polygon style="fill:#0B431C;stroke:#231F20;stroke-width:3;stroke-linecap:round;stroke-linejoin:round;stroke-miterlimit:10;" points="
				19.2,41.7 26,129.8 34,140.2 27.5,49 			"/>
			
				<polygon style="fill:#225C2E;stroke:#231F20;stroke-width:3;stroke-linecap:round;stroke-linejoin:round;stroke-miterlimit:10;" points="
				136.4,30.8 27.5,49 19.2,41.7 124.5,24.8 			"/>
			
				<polygon style="fill:#225C2E;stroke:#231F20;stroke-width:3;stroke-linecap:round;stroke-linejoin:round;stroke-miterlimit:10;" points="
				96.2,151.3 116.8,145.3 120.4,67.3 98.4,72.2 			"/>
			
				<polygon style="fill:#0B431C;stroke:#231F20;stroke-width:3;stroke-linecap:round;stroke-linejoin:round;stroke-miterlimit:10;" points="
				98.6,57.4 121.1,53.1 120.9,67.3 98.4,72.2 			"/>
			
				<polygon style="fill:#225C2E;stroke:#231F20;stroke-width:3;stroke-linecap:round;stroke-linejoin:round;stroke-miterlimit:10;" points="
				48.8,21.2 98.6,57.4 121.1,53.1 68.4,18.3 			"/>
			<path style="fill:#0B431C;stroke:#231F20;stroke-width:3;stroke-linecap:round;stroke-linejoin:round;stroke-miterlimit:10;" d="
				M91.3,36.5L80.2,47.9c0,0-2.5,2.7-3.1-0.9c0,0-0.4-4.5,0.2-6.5c0.5-2,3.5-7.3,6.7-7.3C84,33.2,87.7,31.2,91.3,36.5z"/>
			<path style="fill:#0B431C;stroke:#231F20;stroke-width:3;stroke-linecap:round;stroke-linejoin:round;stroke-miterlimit:10;" d="
				M57.4,32c0,0-2.6-2.1-5.8-3.3c-10.3-3.8-12.2-2.4-12.2-2.4s-5,6.8,1.3,8.5c8,2.2,13.1,1.3,13.1,1.3L57.4,32z"/>
			<path style="fill:#316E39;stroke:#231F20;stroke-width:3;stroke-linecap:round;stroke-linejoin:round;stroke-miterlimit:10;" d="
				M65.9,9.3l23.8,1.8c0,0-2,2.8-2.4,7.8c-0.3,3.5-0.4,9.5,3.1,15.2c0,0-3.7-2.2-5.9-0.9l-16.9-2c0,0-3.8-3.1-4-8
				C63.5,18.3,64.1,14.7,65.9,9.3z"/>
			<path style="fill:#0B431C;stroke:#231F20;stroke-width:3;stroke-linecap:round;stroke-linejoin:round;stroke-miterlimit:10;" d="
				M115.5,42.7h-13.7L87.1,41c0,0,4.5-3.7,7.6-5c3.1-1.3,11.1-0.6,16-0.8C115.6,35,119,35.4,115.5,42.7z"/>
			<path style="fill:#0B431C;stroke:#231F20;stroke-width:3;stroke-linecap:round;stroke-linejoin:round;stroke-miterlimit:10;" d="
				M91.3,36.5c0,0,6.7-6.9,7.3-7.8c0.5-0.9,3.6-5.1,4-6.9c0.4-1.8,0.4-8.7-2-6.2c-2.4,2.5-9.3,20.3-9.3,20.3V36.5z"/>
			<path style="fill:#225C2E;stroke:#231F20;stroke-width:3;stroke-linecap:round;stroke-linejoin:round;stroke-miterlimit:10;" d="
				M54.5,46.8c0,0,23.4,2.7,24.1,2.4c0,0-2.4-0.2-1.3-8.7c0,0,1.8-4.9,5.6-7.3c0,0-23.2-2.9-24-2.5C59,30.7,48.3,38.9,54.5,46.8z"/>
			<path style="fill:#0B431C;stroke:#231F20;stroke-width:3;stroke-linecap:round;stroke-linejoin:round;stroke-miterlimit:10;" d="
				M88.6,11.1c0,0,3.7-3.4,2.7,25.4l-2.4-2.7C88.9,33.8,82.5,21.8,88.6,11.1z"/>
			<path style="fill:#3A7C42;stroke:#231F20;stroke-width:3;stroke-linecap:round;stroke-linejoin:round;stroke-miterlimit:10;" d="
				M70.3,9.4c0,0-0.2-3.4,1.4-5.4l23.2,2c0,0-3,1.3-3.6,17.6c0,0-0.3-13.9-2.8-12.5L70.3,9.4z"/>
			<path style="fill:#0B431C;stroke:#231F20;stroke-width:3;stroke-linecap:round;stroke-linejoin:round;stroke-miterlimit:10;" d="
				M94.9,6c0,0,4.9,7.1-3.6,30.5C91.3,36.5,90.4,8.7,94.9,6z"/>
			<path style="fill:#316E39;stroke:#231F20;stroke-width:3;stroke-linecap:round;stroke-linejoin:round;stroke-miterlimit:10;" d="
				M115.5,42.7l7.1-9.7c0,0,2.8-8.5-2.8-7.9c0,0-19.4,2.3-22.8,5.6L87.1,41c0,0,7.7-7.3,21.4-8.5C108.6,32.5,120.8,32.6,115.5,42.7z
				"/>
			<path style="fill:#316E39;stroke:#231F20;stroke-width:3;stroke-linecap:round;stroke-linejoin:round;stroke-miterlimit:10;" d="
				M39.4,26.3l9.4-7.3c0,0,11.6-0.2,13.7,5.1c0,0,1.6,5.2,4.2,7.1L59,30.7L57.5,32C57.5,32,48.7,23.8,39.4,26.3z"/>
			<path style="fill:#225C2E;stroke:#231F20;stroke-width:3;stroke-linecap:round;stroke-linejoin:round;stroke-miterlimit:10;" d="
				M101.4,15h-5.1c0,0-0.7,7.4-3.4,16.8C92.9,31.8,99.1,16.2,101.4,15z"/>
		</g>
		<g>
			<polygon style="fill:#0B431C;" points="19.2,41.7 26,129.8 34,140.2 27.5,49 			"/>
			<polygon style="fill:#225C2E;" points="136.4,30.8 27.5,49 19.2,41.7 124.5,24.8 			"/>
			<polygon style="fill:#225C2E;" points="96.2,151.3 116.8,145.3 120.4,67.3 98.4,72.2 			"/>
			<polygon style="fill:#0B431C;" points="98.6,57.4 121.1,53.1 120.9,67.3 98.4,72.2 			"/>
			<polygon style="fill:#225C2E;" points="48.8,21.2 98.6,57.4 121.1,53.1 68.4,18.3 			"/>
			<path style="fill:#0B431C;" d="M91.3,36.5L80.2,47.9c0,0-2.5,2.7-3.1-0.9c0,0-0.4-4.5,0.2-6.5c0.5-2,3.5-7.3,6.7-7.3
				C84,33.2,87.7,31.2,91.3,36.5z"/>
			<path style="fill:#0B431C;" d="M57.4,32c0,0-2.6-2.1-5.8-3.3c-10.3-3.8-12.2-2.4-12.2-2.4s-5,6.8,1.3,8.5
				c8,2.2,13.1,1.3,13.1,1.3L57.4,32z"/>
			<path style="fill:#316E39;" d="M65.9,9.3l23.8,1.8c0,0-2,2.8-2.4,7.8c-0.3,3.5-0.4,9.5,3.1,15.2c0,0-3.7-2.2-5.9-0.9l-16.9-2
				c0,0-3.8-3.1-4-8C63.5,18.3,64.1,14.7,65.9,9.3z"/>
			<path style="fill:#0B431C;" d="M115.5,42.7h-13.7L87.1,41c0,0,4.5-3.7,7.6-5c3.1-1.3,11.1-0.6,16-0.8
				C115.6,35,119,35.4,115.5,42.7z"/>
			<path style="fill:#0B431C;" d="M91.3,36.5c0,0,6.7-6.9,7.3-7.8c0.5-0.9,3.6-5.1,4-6.9c0.4-1.8,0.4-8.7-2-6.2
				c-2.4,2.5-9.3,20.3-9.3,20.3V36.5z"/>
			<path style="fill:#225C2E;" d="M54.5,46.8c0,0,23.4,2.7,24.1,2.4c0,0-2.4-0.2-1.3-8.7c0,0,1.8-4.9,5.6-7.3c0,0-23.2-2.9-24-2.5
				C59,30.7,48.3,38.9,54.5,46.8z"/>
			<path style="fill:#0B431C;" d="M88.6,11.1c0,0,3.7-3.4,2.7,25.4l-2.4-2.7C88.9,33.8,82.5,21.8,88.6,11.1z"/>
			<path style="fill:#3A7C42;" d="M70.3,9.4c0,0-0.2-3.4,1.4-5.4l23.2,2c0,0-3,1.3-3.6,17.6c0,0-0.3-13.9-2.8-12.5L70.3,9.4z"/>
			<path style="fill:#0B431C;" d="M94.9,6c0,0,4.9,7.1-3.6,30.5C91.3,36.5,90.4,8.7,94.9,6z"/>
			<path style="fill:#316E39;" d="M115.5,42.7l7.1-9.7c0,0,2.8-8.5-2.8-7.9c0,0-19.4,2.3-22.8,5.6L87.1,41c0,0,7.7-7.3,21.4-8.5
				C108.6,32.5,120.8,32.6,115.5,42.7z"/>
			<path style="fill:#316E39;" d="M39.4,26.3l9.4-7.3c0,0,11.6-0.2,13.7,5.1c0,0,1.6,5.2,4.2,7.1L59,30.7L57.5,32
				C57.5,32,48.7,23.8,39.4,26.3z"/>
			<path style="fill:#225C2E;" d="M101.4,15h-5.1c0,0-0.7,7.4-3.4,16.8C92.9,31.8,99.1,16.2,101.4,15z"/>
		</g>
	</g>
</g>
</svg>
