<?xml version="1.0" encoding="utf-8"?>
<!-- Generator: Adobe Illustrator 21.0.0, SVG Export Plug-In . SVG Version: 6.00 Build 0)  -->
<svg version="1.1" id="Layer_1" xmlns="http://www.w3.org/2000/svg" xmlns:xlink="http://www.w3.org/1999/xlink" x="0px" y="0px"
	 viewBox="0 0 591.2 183.8" style="enable-background:new 0 0 591.2 183.8;" xml:space="preserve">
<g id="Layer_1_1_">
</g>
<g>
	<path style="fill:#C1272D;" d="M31.9,161.8c0.2-23,0.4-46,0.6-69c-6.1,1.4-9.1,2.1-15.1,3.5c-0.1,23.9-0.2,47.7-0.3,71.6
		c-4.6,1.9-6.8,2.9-11.3,4.9C5.8,119.4,5.9,66,6,12.6c4.7-0.1,7.1-0.2,11.8-0.4c-0.1,21.7-0.2,43.4-0.3,65.1
		c6.1-1.2,9.1-1.7,15.2-2.8c0.2-20.9,0.4-41.9,0.5-62.8c4.7-0.1,7.1-0.2,11.8-0.3c-0.5,48.6-1.1,97.2-1.6,145.8
		C38.8,159.1,36.5,159.9,31.9,161.8z"/>
	<path style="fill:#231F20;" d="M43.3,167c-4.6,1.8-6.9,2.8-11.5,4.7c-3.2,1.3-5.7-2.1-5.7-7.7c0.1-19.9,0.3-39.9,0.4-59.8
		c-1.4,0.3-2,0.5-3.4,0.9c-0.1,20.1-0.3,40.2-0.4,60.3c0,5.6-2.6,11.4-5.8,12.8c-4.5,2-6.8,3.1-11.3,5.2c-3.1,1.5-5.7-2.1-5.7-8.1
		C0,121.2,0,67,0,12.8C0,6.8,2.7,2,6,2c4.7,0,7.1,0,11.9-0.1c3.3,0,6,4.6,5.9,10.2c-0.1,18-0.2,36-0.3,54c1.4-0.2,2-0.3,3.4-0.5
		C27,47.7,27.1,29.9,27.2,12c0-5.6,2.8-10.2,6.1-10.2c4.7,0,7.1,0,11.9-0.1c3.3,0,5.9,4.3,5.9,9.6c-0.6,47.9-1.2,95.9-1.8,143.8
		C49.2,160.4,46.5,165.8,43.3,167z M11.7,80.7c0,5.9,0,8.8,0,14.7c0.4-3.4,1.6-6.4,3.3-8.1C13.3,86.4,12.1,83.9,11.7,80.7z
		 M35.1,83.2c1.7,1,2.9,3.3,3.2,6.2c0.1-5.5,0.1-8.3,0.1-13.8C38,78.8,36.7,81.6,35.1,83.2z"/>
</g>
<g>
	<path style="fill:#C1272D;" d="M79.9,144.7c-0.8-11.2-1.5-22.4-2.3-33.7c-5.2,1.3-7.9,1.9-13.1,3.3c-1.1,12.2-2.3,24.4-3.4,36.6
		c-4.7,1.6-7,2.5-11.7,4.2C54.4,107,59.6,59,65,11c6.2-0.2,9.3-0.2,15.6-0.4c3.7,43.5,7.4,87,11.1,130.4
		C87,142.5,84.6,143.2,79.9,144.7z M73.8,56.4c-0.7-9.7-1.2-26.5-1.2-26.5c-0.1,0-0.2,0-0.3,0c0,0-1.1,17.1-2.1,26.9
		c-1.3,14-2.6,28-3.9,42c4-0.9,6.1-1.3,10.1-2.2C75.5,83.2,74.7,69.8,73.8,56.4z"/>
	<path style="fill:#231F20;" d="M91.6,149.8c-4.8,1.5-7.1,2.3-11.9,3.9c-3,1-5.4-1.5-5.7-5.9c-0.7-10.5-1-15.7-1.8-26.3
		c-1,0.3-1.6,0.4-2.6,0.7c-0.9,9.3-1.8,18.6-2.6,27.9c-0.4,4.7-3,9.1-6,10.2c-4.7,1.7-7,2.6-11.7,4.4c-1.7,0.7-3.3,0.1-4.4-1.6
		s-1.5-4.4-1.2-7.3c4.9-48.7,10-97.4,15.4-146c0.5-4.6,3.1-8,6-8c6.2,0,9.4,0,15.6-0.1c3,0,5.4,3.2,5.8,7.5
		c3.6,43,7.3,85.9,11.1,128.9c0.2,2.4-0.3,5.1-1.5,7.3C95,147.6,93.3,149.2,91.6,149.8z M80.3,102.3c0.9,0.4,1.6,1.2,2.1,2.2
		c-0.2-2.4-0.3-3.7-0.5-6.1c-0.3,1.1-0.7,2.2-1.2,3.2C80.6,101.9,80.5,102.1,80.3,102.3z M60.7,103.3c-0.3,2.6-0.4,3.9-0.7,6.5
		c0.6-1.3,1.3-2.4,2.2-3.2c-0.1-0.2-0.3-0.3-0.4-0.5C61.3,105.3,60.9,104.4,60.7,103.3z M72.5,20.8c0.1,0,0.2,0,0.3,0
		c1,0,1.9,0.3,2.7,0.9c-0.1-0.7-0.1-1.1-0.2-1.8C73.2,20,72.1,20,70,20.1c-0.1,0.7-0.1,1.1-0.2,1.8C70.6,21.2,71.5,20.8,72.5,20.8z"
		/>
</g>
<g>
	<path style="fill:#C1272D;" d="M117.8,85.7c-2.8,0.5-4.2,0.7-7,1.2c-0.3,16.4-0.7,32.7-1,49.1c-4.7,1.3-7.1,1.9-11.8,3.3
		c0.9-43,1.7-86,2.6-129.1c7.6-0.2,11.3-0.2,18.9-0.4c14,0,19.7,13.4,18.6,25.8c-0.2,8.4-0.3,12.6-0.5,21
		C138,69.7,131.5,83.1,117.8,85.7z M126.1,37.1c0.2-7.7-2.1-12.5-7-12.3c-2.8,0.1-4.2,0.2-7,0.3c-0.3,15.5-0.6,30.9-1,46.4
		c2.8-0.4,4.2-0.6,7-1c5-0.7,7.4-5.9,7.6-13.6C125.8,49.1,125.9,45.1,126.1,37.1z"/>
	<path style="fill:#231F20;" d="M109.5,144.4c-4.7,1.3-7.1,2-11.8,3.5c-3.3,1-5.9-2.1-5.8-6.9c0.8-43.6,1.7-87.1,2.5-130.7
		c0.1-4.8,2.9-8.7,6.2-8.7c7.6,0,11.3,0,18.9-0.1c18.2,0.2,25.2,17.7,24.4,33.7c-0.2,8.3-0.3,12.5-0.5,20.8
		c-0.2,16.7-7.8,34.8-26,38c-0.4,0.1-0.6,0.1-1,0.2c-0.3,13.4-0.6,26.8-0.9,40.2C115.6,139,112.8,143.5,109.5,144.4z M105.2,74.2
		c-0.1,4.8-0.1,7.1-0.2,11.9c0.5-2.7,1.8-5.1,3.5-6.5C106.7,78.8,105.5,76.8,105.2,74.2z M131.3,61.2c-0.7,5-2.4,9.3-4.7,12.4
		C129.2,70.9,130.7,66.9,131.3,61.2z M117.2,62.5c0.4,0,0.6-0.1,1-0.1c0.5-0.1,0.7-0.2,0.7-0.2l0,0c0,0,0.6-1,0.7-4.4
		c0.2-8.1,0.3-12.1,0.4-20.2c0.1-3.3-0.5-4.3-0.5-4.3l0,0c0,0-0.2-0.1-0.7-0.1c-0.4,0-0.6,0-1,0.1C117.6,43,117.4,52.7,117.2,62.5z
		 M127.7,20.4c2.3,2.7,3.7,6.6,4.2,11.6C131.6,26.4,130.3,22.6,127.7,20.4z M106.3,18.6c0,2.1-0.1,3.1-0.1,5.2
		c0.4-2.1,1.3-4,2.5-5.3C107.7,18.5,107.3,18.5,106.3,18.6z"/>
</g>
<g>
	<path style="fill:#C1272D;" d="M165,79c-2.8,0.3-4.3,0.5-7.1,0.9c-0.3,15-0.6,30.1-1,45.1c-4.8,0.9-7.2,1.4-12,2.5
		c0.9-39.4,1.7-78.8,2.6-118.1c7.6-0.1,11.3-0.2,18.9-0.3c13.3,0,19.8,11.8,18.7,24c-0.2,7.8-0.2,11.7-0.4,19.5
		C185.3,65.4,178.2,77.2,165,79z M173.2,34.3c0.1-7.1-2.1-11.6-7.1-11.4c-2.8,0.1-4.2,0.1-7.1,0.3c-0.3,14.2-0.6,28.4-0.9,42.7
		c2.8-0.3,4.2-0.4,7.1-0.7c5-0.5,7.5-5.2,7.6-12.4C173,45.4,173.1,41.7,173.2,34.3z"/>
	<path style="fill:#231F20;" d="M156.7,132.7c-4.8,1-7.2,1.5-12,2.6c-3.3,0.8-6-2.2-5.9-6.6c0.9-39.8,1.7-79.6,2.6-119.4
		c0.1-4.4,2.9-8,6.2-8c7.6,0,11.3,0,18.9,0C184,1.5,191.9,17,191.2,32.8c-0.1,7.7-0.2,11.6-0.4,19.3c0,15.6-8.7,33.1-26,34.5
		c-0.4,0.1-0.6,0.1-1,0.1c-0.3,12.4-0.5,24.7-0.8,37.1C162.9,128.1,160.1,132,156.7,132.7z M152.2,68.1c-0.1,4.4-0.1,6.5-0.2,10.9
		c0.5-2.5,1.8-4.6,3.5-5.9C153.8,72.3,152.6,70.5,152.2,68.1z M178.5,56.7c-0.7,4.7-2.3,8.5-4.7,11.3C176.5,65.7,178,62,178.5,56.7z
		 M164.4,57.6c0.4,0,0.6-0.1,1-0.1c0.5,0,0.7-0.2,0.7-0.2l0,0c0,0,0.6-0.9,0.7-4.1c0.2-7.4,0.2-11.2,0.4-18.6c0.1-3.1-0.5-3.9-0.5-4
		l0,0c0,0-0.2-0.1-0.7-0.1c-0.4,0-0.6,0-1,0C164.7,41.4,164.6,46.8,164.4,57.6z M174.8,18.9c2.3,2.5,3.8,6.2,4.3,10.8
		C178.8,24.5,177.4,21,174.8,18.9z M153.4,17c0,1.9-0.1,2.8-0.1,4.7c0.4-2,1.3-3.7,2.5-4.8C154.8,17,154.3,17,153.4,17z"/>
</g>
<g>
	<path style="fill:#C1272D;" d="M214.4,75.1c-0.2,13.7-0.4,27.4-0.7,41.1c-4.8,0.6-7.3,0.9-12.1,1.5c0.2-13.9,0.5-27.8,0.7-41.6
		c-4.9-22.4-9.6-44.8-14.3-67.2c5-0.1,7.5-0.1,12.4-0.1c2.1,11.9,4.2,23.7,6.3,35.6c1.3,7.4,1.8,15.5,1.8,15.5c0.1,0,0.2,0,0.3,0
		c0,0,1-8.2,2.5-15.7c2.4-11.8,4.9-23.7,7.4-35.5c5,0,7.5-0.1,12.4-0.1C225.6,30.6,220,52.8,214.4,75.1z"/>
	<path style="fill:#231F20;" d="M213.6,123.4c-4.8,0.6-7.3,0.9-12.1,1.6c-3.4,0.5-6-2.4-6-6.4c0.3-13.6,0.5-27.3,0.8-40.9
		c-4.8-22.2-9.5-44.5-14-66.7c-0.5-2.2,0-4.7,1.1-6.5c1.2-1.9,3-3,4.8-3c5,0,7.5,0,12.4,0c2.8,0,5.2,2.3,5.7,5.6
		c1.2,6.8,1.8,10.2,3,17c1.4-6.8,2.1-10.2,3.5-17c0.7-3.3,3.1-5.6,5.9-5.6c5,0,7.5,0,12.4,0c1.9,0,3.6,1,4.8,2.8
		c1.1,1.8,1.5,4,0.9,6.2c-5.5,21.8-11,43.6-16.5,65.3c-0.2,13.3-0.4,26.6-0.6,39.9C219.8,119.4,217,122.9,213.6,123.4z M206.8,66.8
		c0.6,2.7,0.9,4.1,1.5,6.8c0.1,0.3,0.1,0.6,0.1,0.9c0-0.3,0.1-0.6,0.2-0.9c0.7-2.8,1-4.2,1.7-6.9c-0.5,0.2-1,0.3-1.5,0.3
		c-0.1,0-0.2,0-0.3,0C207.9,67,207.3,66.9,206.8,66.8z"/>
</g>
<g>
	<path style="fill:#C1272D;" d="M284.3,111.6c0-15.9,0.1-31.7,0.1-47.6c-6.3,0.1-9.4,0.1-15.7,0.2c-0.1,15.9-0.2,31.8-0.3,47.8
		c-4.9,0.2-7.3,0.3-12.2,0.6c0.3-34.8,0.6-69.6,0.9-104.3c4.8,0,7.1,0,11.9,0c-0.1,14.5-0.2,29-0.3,43.5c6.3-0.1,9.4-0.1,15.6-0.2
		c0-14.4,0.1-28.9,0.1-43.3c4.8,0,7.1,0,11.9,0c0,34.4,0,68.9,0,103.3C291.6,111.5,289.2,111.5,284.3,111.6z"/>
	<path style="fill:#231F20;" d="M296.5,118.4c-4.9,0-7.3,0-12.2,0.1c-3.4,0.1-6.1-3-6.1-6.8c0.1-13.6,0.1-27.2,0.2-40.7
		c-1.4,0-2.1,0-3.5,0.1c-0.1,13.6-0.1,27.2-0.2,40.8c0,3.8-2.8,7-6.2,7.1c-4.9,0.2-7.3,0.3-12.2,0.6c-3.4,0.2-6.1-2.7-6.1-6.6
		c0.3-34.9,0.7-69.8,1-104.7c0-3.9,2.8-7,6.1-7c4.7,0,7.1,0,11.9,0c3.3,0,6,3.1,6,6.9c-0.1,12.2-0.1,24.3-0.2,36.5
		c1.4,0,2.1,0,3.5,0c0-12.1,0.1-24.3,0.1-36.4c0-3.8,2.7-6.9,6-6.9c4.7,0,7.1,0,11.9,0c3.3,0,6,3.1,6,6.9
		c0.1,34.5,0.1,68.9,0.2,103.4C302.7,115.3,299.9,118.4,296.5,118.4z M287,57.7c1.7,0.9,3,2.7,3.4,4.8c0-3.9,0-5.8,0-9.6
		C290,55,288.7,56.8,287,57.7z M262.9,53.2c0,3.9,0,5.8-0.1,9.7c0.4-2.2,1.7-4,3.4-4.9C264.6,57.1,263.3,55.4,262.9,53.2z"/>
</g>
<g>
	<path style="fill:#C1272D;" d="M327.6,113.5c-12.6-0.6-19.7-10.6-19.9-22.8c-0.1-20.5-0.1-41-0.2-61.6c0.1-11.9,6.8-22.3,19.3-22.2
		c12,0.1,20.3,10.7,19.6,22.6c0.2,20.8,0.5,41.7,0.7,62.5C347.4,104.2,340.3,114.1,327.6,113.5z M334.5,30.2
		c-0.1-7.4-3.1-10.8-7.6-10.8c-4.4,0-7.5,3.3-7.4,10.6c0.1,20,0.2,40.1,0.3,60.1c0,7.3,3.2,10.7,7.7,10.9c4.5,0.2,7.6-3,7.5-10.4
		C334.9,70.5,334.7,50.3,334.5,30.2z"/>
	<path style="fill:#231F20;" d="M327.7,120.4c-15.8-0.6-26.8-14.4-26-29.8c0-20.5-0.1-41-0.1-61.5c-0.8-14.9,9.6-29.3,25.3-29.1
		c16.3,0.2,25.7,14.2,25.7,29.7c0.3,20.9,0.5,41.9,0.8,62.8C353.8,108.2,344,121.1,327.7,120.4z M327,26.3c-0.7,0-1.5,0-1.4,3.7
		c0.1,20.1,0.3,40.2,0.4,60.3c0,3.8,0.8,3.8,1.5,3.8s1.5,0.1,1.5-3.7c-0.1-20.1-0.3-40.2-0.4-60.3C328.5,26.3,327.7,26.3,327,26.3z"
		/>
</g>
<g>
	<path style="fill:#C1272D;" d="M358.7,114.3c-0.5-35.3-0.9-70.6-1.4-105.9c4.8,0,7.1,0,11.9,0.1c0.5,31.5,0.9,62.9,1.4,94.4
		c7.2,0.7,10.8,1.1,18,1.9c0.1,5.1,0.1,7.7,0.2,12.9C378.8,116.2,368.7,115.1,358.7,114.3z"/>
	<path style="fill:#231F20;" d="M388.9,124.8c-10-1.4-20.1-2.6-30.2-3.5c-3.4-0.3-6.2-3.7-6.2-7.6c-0.4-35.1-0.8-70.3-1.2-105.4
		c0-3.9,2.6-7,5.9-7c4.7,0,7.1,0,11.9,0c3.3,0,6.1,3.2,6.1,7.2c0.5,29.2,0.9,58.5,1.4,87.7c4.7,0.4,7.1,0.7,11.8,1.2
		c3.4,0.4,6.1,4,6.2,8c0.1,5.2,0.1,7.8,0.2,13C395,122.4,392.3,125.3,388.9,124.8z M364.7,107.7c0.8,0.1,1.3,0.1,2.1,0.2
		c-1.1-1.1-1.8-2.6-2.1-4.2C364.7,105.4,364.7,106.2,364.7,107.7z"/>
</g>
<g>
	<path style="fill:#C1272D;" d="M396,118.5c-0.7-36.6-1.4-73.2-2-109.9c4.8,0,7.1,0.1,11.9,0.1c0.7,37.2,1.5,74.4,2.2,111.5
		C403.2,119.6,400.8,119.2,396,118.5z"/>
	<path style="fill:#231F20;" d="M408.2,127.8c-4.8-0.8-7.2-1.2-12.1-1.9c-3.4-0.5-6.2-4.1-6.2-8.2C389.3,81.3,388.6,45,388,8.6
		c-0.1-4,2.6-7.3,5.9-7.3c4.7,0,7.1,0,11.9,0c3.3,0,6.1,3.4,6.2,7.5c0.8,37.5,1.5,75,2.3,112.5C414.2,125.5,411.5,128.4,408.2,127.8
		z"/>
</g>
<g>
	<path style="fill:#C1272D;" d="M440.3,126.2c-7.8-1.6-11.8-2.4-19.7-3.8C419.8,84.6,419,46.8,418.2,9c7.8,0.1,11.7,0.2,19.5,0.3
		c14.1,0.4,20.3,14,19.8,26.6c0.5,22.8,1,45.5,1.5,68.2C460.2,116.3,454.3,129.3,440.3,126.2z M445.6,35.9
		c-0.2-7.4-2.6-12.3-7.6-12.5c-3-0.1-4.6-0.2-7.6-0.3c0.6,29.3,1.3,58.6,1.9,87.9c3.1,0.5,4.6,0.8,7.6,1.4c5,0.9,7.3-3.3,7.1-10.8
		C446.6,79.7,446.1,57.8,445.6,35.9z"/>
	<path style="fill:#231F20;" d="M440.4,134c-7.8-1.7-11.8-2.5-19.7-4c-3.4-0.6-6.1-4.5-6.2-8.6c-0.8-37.5-1.5-75-2.3-112.5
		c-0.1-4.1,2.5-7.5,5.8-7.5c7.8,0,11.7,0,19.5,0c18.7,0.3,25.9,18.5,25.9,34.8c0.5,23,1,46,1.5,69
		C465.8,120.9,458.9,138.3,440.4,134z M426.5,115.9c0.8,0.1,1.2,0.2,2.1,0.4c-1.1-1.3-1.8-2.9-2.2-4.7
		C426.5,113.4,426.5,114.2,426.5,115.9z M452.8,108.1c-0.5,3.6-1.5,6.5-3,8.6C451.5,114.9,452.5,112.1,452.8,108.1z M438.2,104.3
		c0.6,0.1,1,0.2,1.6,0.3c0.5,0.1,0.7,0,0.7,0l0,0c0,0,0.6-0.8,0.5-4c-0.5-21.7-0.9-43.4-1.4-65.1c-0.1-3.1-0.7-4.1-0.7-4.2
		c0,0-0.2-0.1-0.7-0.1c-0.6,0-1,0-1.6-0.1C437.1,55.5,437.7,79.9,438.2,104.3z M446.5,19.8c2.4,2.8,4,6.8,4.7,11.7
		C450.7,26,449.2,22.1,446.5,19.8z M424.4,16.7c0,1.9,0.1,2.8,0.1,4.6c0.3-1.9,1.1-3.5,2.3-4.6C425.9,16.7,425.4,16.7,424.4,16.7z"
		/>
</g>
<g>
	<path style="fill:#C1272D;" d="M495.3,139.9c-1.2-11.3-2.3-22.6-3.5-33.8c-5.3-1.1-7.9-1.7-13.2-2.8c-0.7,10.5-1.5,20.9-2.2,31.4
		c-4.8-1.2-7.2-1.9-12-3c3.8-40.6,7.5-81.1,11.2-121.7c6.2,0.1,9.4,0.2,15.6,0.3c5.5,44.4,10.9,88.8,16.1,133.2
		C502.5,142,500.1,141.2,495.3,139.9z M485.9,52.7c-1-9.3-2.2-24.9-2.2-24.9c-0.1,0-0.2,0-0.3,0c0,0-0.5,15.7-1.1,24.6
		c-0.8,12.5-1.7,25-2.5,37.5c4.1,0.7,6.1,1.1,10.2,1.9C488.6,78.7,487.3,65.7,485.9,52.7z"/>
	<path style="fill:#231F20;" d="M507.4,152.3c-4.7-1.6-7.1-2.3-11.9-3.8c-3-0.9-5.6-4.9-6.1-9.3c-1.1-10.4-1.6-15.5-2.7-25.8
		c-1.1-0.2-1.6-0.4-2.7-0.6c-0.7,9.8-1,14.7-1.7,24.5c-0.3,4.1-2.8,6.5-5.8,5.7c-4.8-1.3-7.2-2-12-3.2c-1.8-0.5-3.4-1.9-4.6-4
		s-1.7-4.5-1.5-6.8c3.8-40.1,7.5-80.3,11.2-120.5c0.4-4,2.8-7,5.8-7c6.2,0,9.4,0,15.6,0c3,0,5.5,3.2,6.1,7.4
		c5.5,44.9,10.9,89.9,16,134.9c0.3,2.7-0.1,5.1-1.2,6.7C510.7,152.3,509.1,152.9,507.4,152.3z M494.2,98.8c0.9,0.8,1.6,1.8,2.2,3.1
		c-0.3-2.5-0.5-3.7-0.8-6.2c-0.2,1-0.6,1.9-1.1,2.7C494.5,98.5,494.3,98.6,494.2,98.8z M474.3,91.7c-0.2,2.2-0.3,3.3-0.5,5.5
		c0.6-0.9,1.3-1.6,2.1-2c-0.1-0.2-0.3-0.4-0.4-0.6C474.9,93.7,474.5,92.7,474.3,91.7z M483.3,19.3c0.1,0,0.2,0,0.3,0
		c1,0,1.9,0.4,2.8,1.1c-0.1-0.7-0.1-1.1-0.2-1.8c-2.1-0.1-3.2-0.1-5.3-0.2c-0.1,0.6-0.1,1-0.1,1.6C481.5,19.5,482.4,19.3,483.3,19.3
		z"/>
</g>
<g>
	<path style="fill:#C1272D;" d="M529.6,97.6c0.3,17.8,0.5,35.6,0.8,53.5c-4.6-1.6-7-2.4-11.6-3.9c-0.3-17.4-0.6-34.7-0.9-52.1
		c-5.4-28.2-11-56.5-16.8-84.6c5,0.1,7.4,0.2,12.4,0.3c2.6,15.1,5.1,30.2,7.6,45.3c1.5,9.7,2.4,20.2,2.4,20.2c0.1,0,0.2,0,0.3,0
		c0,0,0.7-10.2,1.9-19.6c2-15.1,4-30.3,6.1-45.4c5,0.1,7.4,0.2,12.4,0.3C539.3,40.2,534.5,68.9,529.6,97.6z"/>
	<path style="fill:#231F20;" d="M530.5,160.4c-4.6-1.7-7-2.5-11.6-4.2c-3.3-1.1-6-6-6.1-11c-0.3-16.7-0.6-33.4-0.9-50.2
		c-5.4-27.5-10.9-55-16.7-82.4c-0.6-2.6-0.2-5.4,0.9-7.6s2.8-3.4,4.7-3.4c5,0,7.5,0,12.4,0c2.8,0,5.3,2.9,6,7.1
		c1.5,8.6,2.2,13,3.6,21.7c1.2-8.6,1.7-12.9,2.9-21.6c0.6-4.2,2.9-7.2,5.7-7.2c5,0,7.4,0,12.4,0c1.9,0,3.7,1.4,4.8,3.9
		c1.2,2.5,1.6,5.7,1.1,8.6c-4.7,28.7-9.4,57.3-14.3,85.9c0.2,17.6,0.5,35.3,0.7,52.9C536.3,158.3,533.8,161.6,530.5,160.4z
		 M521.8,84.6c0.7,3.6,1,5.5,1.7,9.1c0.1,0.4,0.1,0.8,0.2,1.1c0-0.4,0.1-0.7,0.1-1.1c0.6-3.3,0.9-5,1.4-8.4c-0.5,0.1-1,0.1-1.5,0
		c-0.1,0-0.2,0-0.3-0.1C523,85.3,522.4,85,521.8,84.6z"/>
</g>
<g>
	<path style="fill:#C1272D;" d="M566.3,166.5c-14-5.9-19.3-24.5-19-38.7c-0.1-6.6-0.1-9.9-0.2-16.5c4.6,1.2,6.9,1.8,11.5,3.1
		c0.1,6.3,0.1,9.5,0.1,15.9c0.1,10.6,3.5,16.6,7.5,18.1c5.3,2,8-3.2,7.9-14.9c0-9.8-1.1-16.6-5.5-25.8c-4.3-9.2-8.7-18.3-13.3-27.3
		c-6-11.2-8.2-23.9-8.4-36.2c-0.2-11.6,2.7-34.5,18.8-33.8c16.2,0.7,19.3,22.2,19.1,34.8c0,7.3,0,10.9,0,18.2
		c-4.6-0.7-6.9-1.1-11.5-1.8c0-6.6,0-9.9-0.1-16.4c-0.1-11-3-16.2-7.3-16.5c-4.9-0.3-7.3,6.4-7.3,16.8c0.1,9.4,1.2,15.7,5.6,24.4
		c4.6,9.1,9,18.3,13.3,27.6c6,12.5,8.5,26.6,8,40C585,147,583.4,173.6,566.3,166.5z"/>
	<path style="fill:#231F20;" d="M566.4,176.6c-18.5-8.5-24.8-32.1-25-50.7c-0.1-6.5-0.1-9.8-0.2-16.3c-0.1-5.3,2.5-9,5.8-8.2
		c4.6,1.1,6.9,1.7,11.5,2.8c0.8,0.2,1.5,0.7,2.2,1.3c-3.9-8-5.8-11.9-9.7-19.6c-7.2-13.1-9.8-27.9-10.1-42.7
		c-0.3-15.3,3.8-43.3,24.6-43.4c22.2-0.1,24.3,30.3,25.1,45.7c0,7.4,0,11.1,0,18.4c0,6-2.6,10.3-5.9,9.7c-4.6-0.8-6.9-1.3-11.5-2.1
		c-0.3,0-0.5-0.1-0.8-0.2c3.7,7.6,5.6,11.5,9.2,19.5c6.9,15.1,10.1,31.9,9.5,48.2C590.8,150.6,588.4,187.6,566.4,176.6z
		 M553.9,138.4c0.4,2.2,0.9,4.1,1.5,5.9C554.8,142.3,554.3,140.4,553.9,138.4z M564.1,112.8c0.2,1,0.3,2.1,0.3,3.2
		c0,6.4,0.1,9.6,0.1,16.1c0,5.5,1.1,5.8,1.6,6c1.2,0.4,2.2,0.8,2.2-6.7c0-7-0.6-11.1-3.9-18C564.3,113.1,564.2,113,564.1,112.8z
		 M565.8,38.6c-1.4-0.1-1.4,6.5-1.4,7.2c0,6.1,0.5,9.9,2.8,15.1c0-0.2,0-0.3,0-0.5c0-6.5-0.1-9.7-0.1-16.2c0-4.2-0.6-5.4-0.6-5.4
		C566.5,38.9,566.4,38.7,565.8,38.6z M576.9,29.9c0.4,1.3,0.7,2.7,1,4.1C577.7,32.5,577.3,31.1,576.9,29.9z"/>
</g>
<g>
	<path style="fill:#C1272D;" d="M31.9,161.8c0.2-23,0.4-46,0.6-69c-6.1,1.4-9.1,2.1-15.1,3.5c-0.1,23.9-0.2,47.7-0.3,71.6
		c-4.6,1.9-6.8,2.9-11.3,4.9C5.8,119.4,5.9,66,6,12.6c4.7-0.1,7.1-0.2,11.8-0.4c-0.1,21.7-0.2,43.4-0.3,65.1
		c6.1-1.2,9.1-1.7,15.2-2.8c0.2-20.9,0.4-41.9,0.5-62.8c4.7-0.1,7.1-0.2,11.8-0.3c-0.5,48.6-1.1,97.2-1.6,145.8
		C38.8,159.1,36.5,159.9,31.9,161.8z"/>
	<path style="fill:#FFFFFF;" d="M43.4,162.2c-4.6,1.8-6.9,2.7-11.5,4.6c-1.6,0.7-2.9-1.1-2.9-3.8c0.2-21.5,0.3-43,0.5-64.4
		c-3.7,0.9-5.5,1.3-9.2,2.3c-0.1,22-0.2,43.9-0.4,65.9c0,2.8-1.3,5.7-2.9,6.4c-4.5,2-6.8,3-11.3,5.1c-1.6,0.7-2.9-1.1-2.8-4.1
		c0-53.9,0-107.7,0.1-161.5c0-3,1.3-5.4,3-5.4c4.7-0.1,7.1-0.1,11.8-0.2c1.7,0,3,2.3,3,5.1c-0.1,19.8-0.2,39.7-0.3,59.5
		c3.7-0.7,5.6-1,9.3-1.6c0.2-19.4,0.3-38.8,0.5-58.2c0-2.8,1.4-5.1,3-5.1c4.7-0.1,7.1-0.1,11.9-0.2c1.7,0,3,2.1,2.9,4.8
		c-0.6,48.3-1.1,96.5-1.7,144.8C46.3,158.9,45,161.6,43.4,162.2z M34.9,155.7c2.3-0.9,3.4-1.3,5.7-2.1c0.5-45.7,1-91.4,1.5-137
		c-2.3,0.1-3.5,0.1-5.8,0.2c-0.3,19-0.5,38.2-0.7,57.3c0,2.7-1.4,5.2-3,5.5c-6.1,1.2-9.1,1.8-15.2,3c-1.6,0.3-2.9-1.7-2.9-4.6
		c0.1-20.1,0.2-40.3,0.2-60.4c-2.3,0.1-3.5,0.2-5.8,0.3c-0.1,49.5-0.2,98.9-0.4,148.4c2.2-1,3.4-1.4,5.6-2.4
		c0.1-22.3,0.2-44.6,0.3-66.9c0-2.9,1.3-5.5,3-5.9c6-1.4,9.1-2,15.1-3.3c1.6-0.3,2.9,1.6,2.9,4.3C35.3,113.3,35.1,134.5,34.9,155.7z
		"/>
</g>
<g>
	<path style="fill:#C1272D;" d="M79.9,144.7c-0.8-11.2-1.5-22.4-2.3-33.7c-5.2,1.3-7.9,1.9-13.1,3.3c-1.1,12.2-2.3,24.4-3.4,36.6
		c-4.7,1.6-7,2.5-11.7,4.2C54.4,107,59.6,59,65,11c6.2-0.2,9.3-0.2,15.6-0.4c3.7,43.5,7.4,87,11.1,130.4
		C87,142.5,84.6,143.2,79.9,144.7z M73.8,56.4c-0.7-9.7-1.2-26.5-1.2-26.5c-0.1,0-0.2,0-0.3,0c0,0-1.1,17.1-2.1,26.9
		c-1.3,14-2.6,28-3.9,42c4-0.9,6.1-1.3,10.1-2.2C75.5,83.2,74.7,69.8,73.8,56.4z"/>
	<path style="fill:#FFFFFF;" d="M91.7,145.4c-4.8,1.5-7.1,2.2-11.9,3.7c-1.5,0.5-2.7-0.8-2.9-3c-0.7-10-1.3-20-2-30
		c-3.1,0.8-4.7,1.2-7.8,2.1c-1,10.7-2,21.5-3,32.2c-0.2,2.4-1.5,4.6-3,5.1c-4.7,1.7-7,2.5-11.7,4.3c-0.9,0.3-1.7,0-2.2-0.8
		s-0.8-2.2-0.6-3.6c4.9-48.4,10.1-96.7,15.5-145c0.3-2.3,1.5-4,3-4c6.2-0.1,9.3-0.1,15.6-0.2c1.5,0,2.7,1.6,2.9,3.8
		c3.7,43.2,7.4,86.4,11.1,129.7c0.1,1.2-0.2,2.6-0.8,3.7C93.4,144.4,92.5,145.2,91.7,145.4z M82.6,139.4c2.3-0.7,3.5-1,5.8-1.7
		C84.9,96.9,81.4,56,78,15.2c-4.2,0.1-6.3,0.2-10.4,0.4c-5.1,44.5-9.9,89-14.6,133.5c2.3-0.8,3.4-1.2,5.7-2c1-10.9,2-21.7,3-32.6
		c0.2-2.4,1.5-4.4,3-4.8c5.2-1.3,7.8-1.9,13.1-3.2c1.5-0.3,2.7,1,2.9,3.2C81.2,119.7,81.9,129.5,82.6,139.4z M76.3,101.2
		c-4,0.9-6.1,1.4-10.1,2.3c-0.8,0.2-1.6-0.2-2.2-1c-0.5-0.9-0.8-2.1-0.7-3.5c1.3-14.1,2.6-28.2,3.9-42.3c1-9.7,2-26.7,2.1-26.8
		c0.2-2.4,1.5-4.3,3.1-4.4c0.1,0,0.2,0,0.3,0c1.6-0.1,2.8,1.7,2.9,4c0,0.2,0.5,16.6,1.2,26.1l0,0c0.9,13.3,1.7,26.7,2.6,40
		c0.1,1.3-0.2,2.6-0.8,3.7C78,100.3,77.2,101,76.3,101.2z M69.7,93.5c1.4-0.3,2-0.4,3.4-0.7c-0.5-8.4-0.8-12.6-1.3-21
		C70.9,80.5,70.5,84.8,69.7,93.5z"/>
</g>
<g>
	<path style="fill:#C1272D;" d="M117.8,85.7c-2.8,0.5-4.2,0.7-7,1.2c-0.3,16.4-0.7,32.7-1,49.1c-4.7,1.3-7.1,1.9-11.8,3.3
		c0.9-43,1.7-86,2.6-129.1c7.6-0.2,11.3-0.2,18.9-0.4c14,0,19.7,13.4,18.6,25.8c-0.2,8.4-0.3,12.6-0.5,21
		C138,69.7,131.5,83.1,117.8,85.7z M126.1,37.1c0.2-7.7-2.1-12.5-7-12.3c-2.8,0.1-4.2,0.2-7,0.3c-0.3,15.5-0.6,30.9-1,46.4
		c2.8-0.4,4.2-0.6,7-1c5-0.7,7.4-5.9,7.6-13.6C125.8,49.1,125.9,45.1,126.1,37.1z"/>
	<path style="fill:#FFFFFF;" d="M109.6,140.2c-4.7,1.3-7.1,2-11.8,3.4c-1.6,0.5-2.9-1.1-2.9-3.4c0.8-43.3,1.7-86.6,2.5-129.9
		c0-2.4,1.4-4.3,3.1-4.4c7.6-0.1,11.3-0.1,18.9-0.2c16.3,0,22.2,15.6,21.5,29.8c-0.2,8.3-0.3,12.5-0.5,20.9
		c-0.1,15.1-6.8,30.5-22.9,33.6c-1.6,0.3-2.4,0.4-4,0.7c-0.3,14.9-0.6,29.8-0.9,44.6C112.7,137.5,111.3,139.7,109.6,140.2z
		 M101,134.1c2.3-0.6,3.5-1,5.8-1.6c0.3-15.1,0.6-30.1,0.9-45.2c0-2.3,1.4-4.4,3.1-4.7c2.8-0.5,4.2-0.7,7-1.1
		c11.9-2,17.2-13.4,16.7-24.7c0.2-8.4,0.3-12.7,0.5-21.1c1-10.3-3.6-22.5-15.7-21.8c-6.4,0.2-9.5,0.3-15.9,0.4
		C102.6,54.3,101.8,94.2,101,134.1z M118,74.8c-2.8,0.4-4.2,0.6-7,1c-1.7,0.2-3-1.4-2.9-3.8c0.3-15.6,0.6-31.1,1-46.7
		c0-2.3,1.4-4.3,3.1-4.4c2.8-0.1,4.2-0.2,7-0.3c6.5-0.3,10.2,5.8,10,16.2c-0.2,7.9-0.3,11.9-0.4,19.8
		C128.4,67.2,124.4,73.9,118,74.8z M114.1,67c1.6-0.2,2.4-0.3,4-0.5c1.3-0.2,4.3-0.5,4.5-9.1c0.2-8,0.3-12,0.4-20
		c0.2-8.6-2.8-8.4-4.1-8.3c-1.6,0.1-2.4,0.1-4,0.2C114.7,41.8,114.4,54.4,114.1,67z"/>
</g>
<g>
	<path style="fill:#C1272D;" d="M165,79c-2.8,0.3-4.3,0.5-7.1,0.9c-0.3,15-0.6,30.1-1,45.1c-4.8,0.9-7.2,1.4-12,2.5
		c0.9-39.4,1.7-78.8,2.6-118.1c7.6-0.1,11.3-0.2,18.9-0.3c13.3,0,19.8,11.8,18.7,24c-0.2,7.8-0.2,11.7-0.4,19.5
		C185.3,65.4,178.2,77.2,165,79z M173.2,34.3c0.1-7.1-2.1-11.6-7.1-11.4c-2.8,0.1-4.2,0.1-7.1,0.3c-0.3,14.2-0.6,28.4-0.9,42.7
		c2.8-0.3,4.2-0.4,7.1-0.7c5-0.5,7.5-5.2,7.6-12.4C173,45.4,173.1,41.7,173.2,34.3z"/>
	<path style="fill:#FFFFFF;" d="M156.8,128.9c-4.8,1-7.2,1.5-12,2.5c-1.7,0.4-3-1.1-2.9-3.3c0.9-39.6,1.7-79.2,2.6-118.8
		c0-2.2,1.4-4,3.1-4c7.6-0.1,11.3-0.1,18.9-0.2c15,0.1,23,13.7,21.7,27.7c-0.2,7.8-0.2,11.7-0.4,19.4c0,14.8-7.5,28.3-22.9,30.5
		c-1.6,0.2-2.4,0.3-4.1,0.5c-0.3,13.7-0.6,27.4-0.9,41.1C159.9,126.6,158.5,128.5,156.8,128.9z M148.1,122.9
		c2.4-0.5,3.5-0.7,5.9-1.2c0.3-13.8,0.6-27.6,0.9-41.5c0-2.1,1.4-4,3.1-4.2c2.8-0.3,4.2-0.5,7.1-0.8c11.9-1.4,16.7-11.3,16.7-22.4
		c0.2-7.8,0.2-11.7,0.4-19.6c0.9-10.2-4-21.3-15.8-20.4c-6.4,0.1-9.6,0.2-15.9,0.3C149.6,49.8,148.8,86.3,148.1,122.9z M165.2,68.9
		c-2.8,0.3-4.2,0.4-7.1,0.8c-1.7,0.2-3-1.4-2.9-3.5c0.3-14.3,0.6-28.6,0.9-42.9c0-2.1,1.4-3.9,3.1-4c2.8-0.1,4.2-0.1,7-0.2
		c6.5-0.2,10.2,5.5,10,15.1c-0.2,7.3-0.2,11-0.4,18.4C175.7,62.2,171.7,68.3,165.2,68.9z M161.3,61.7c1.6-0.2,2.4-0.2,4.1-0.4
		c1.3-0.1,4.3-0.4,4.5-8.3c0.2-7.4,0.2-11.1,0.4-18.5c0.2-7.9-2.9-7.8-4.2-7.7c-1.6,0.1-2.4,0.1-4,0.2
		C161.8,38.5,161.5,50.1,161.3,61.7z"/>
</g>
<g>
	<path style="fill:#C1272D;" d="M214.4,75.1c-0.2,13.7-0.4,27.4-0.7,41.1c-4.8,0.6-7.3,0.9-12.1,1.5c0.2-13.9,0.5-27.8,0.7-41.6
		c-4.9-22.4-9.6-44.8-14.3-67.2c5-0.1,7.5-0.1,12.4-0.1c2.1,11.9,4.2,23.7,6.3,35.6c1.3,7.4,1.8,15.5,1.8,15.5c0.1,0,0.2,0,0.3,0
		c0,0,1-8.2,2.5-15.7c2.4-11.8,4.9-23.7,7.4-35.5c5,0,7.5-0.1,12.4-0.1C225.6,30.6,220,52.8,214.4,75.1z"/>
	<path style="fill:#FFFFFF;" d="M213.7,119.8c-4.8,0.6-7.3,0.9-12.1,1.5c-1.7,0.2-3-1.2-3-3.2c0.2-13.8,0.5-27.5,0.7-41.3
		c-4.8-22.3-9.5-44.6-14.2-67c-0.2-1.1,0-2.3,0.6-3.3c0.6-0.9,1.5-1.5,2.4-1.5c5,0,7.5,0,12.4-0.1c1.4,0,2.6,1.1,2.9,2.8
		c1.9,10.7,3.8,21.4,5.7,32.1c2.2-10.7,4.4-21.5,6.7-32.2c0.3-1.6,1.6-2.8,3-2.8c5,0,7.5,0,12.4-0.1c0.9,0,1.8,0.5,2.4,1.4
		c0.6,0.9,0.7,2,0.5,3.1c-5.6,22-11.1,44-16.7,66c-0.2,13.5-0.4,27-0.6,40.5C216.8,117.8,215.4,119.6,213.7,119.8z M204.8,113.6
		c2.4-0.3,3.6-0.4,6-0.7c0.2-12.5,0.4-25.1,0.6-37.6c0-0.3,0-0.7,0.1-1c5.2-20.8,10.5-41.6,15.7-62.3c-2.4,0-3.6,0-6.1,0.1
		c-2.3,10.9-4.5,21.8-6.8,32.6c-1.5,7.2-2.4,15.2-2.4,15.3c-0.2,1.8-1.5,3.3-3.1,3.4c-0.1,0-0.2,0-0.3,0c-1.6,0.1-2.8-1.2-3-3
		c0-0.1-0.6-8-1.8-15.2c-1.9-10.9-3.9-21.9-5.8-32.8c-2.4,0-3.7,0.1-6.1,0.1c4.4,20.8,8.8,41.6,13.3,62.4c0.1,0.3,0.1,0.6,0.1,1
		C205.2,88.4,205,101,204.8,113.6z"/>
</g>
<g>
	<path style="fill:#C1272D;" d="M284.3,111.6c0-15.9,0.1-31.7,0.1-47.6c-6.3,0.1-9.4,0.1-15.7,0.2c-0.1,15.9-0.2,31.8-0.3,47.8
		c-4.9,0.2-7.3,0.3-12.2,0.6c0.3-34.8,0.6-69.6,0.9-104.3c4.8,0,7.1,0,11.9,0c-0.1,14.5-0.2,29-0.3,43.5c6.3-0.1,9.4-0.1,15.6-0.2
		c0-14.4,0.1-28.9,0.1-43.3c4.8,0,7.1,0,11.9,0c0,34.4,0,68.9,0,103.3C291.6,111.5,289.2,111.5,284.3,111.6z"/>
	<path style="fill:#FFFFFF;" d="M296.5,115c-4.9,0-7.3,0-12.2,0.1c-1.7,0-3.1-1.5-3.1-3.4c0-14.7,0.1-29.4,0.1-44.2
		c-3.8,0-5.8,0.1-9.6,0.2c-0.1,14.8-0.2,29.5-0.2,44.3c0,1.9-1.4,3.5-3.1,3.6c-4.9,0.2-7.3,0.3-12.2,0.6c-1.7,0.1-3.1-1.4-3-3.3
		c0.3-34.8,0.6-69.7,0.9-104.5c0-1.9,1.4-3.5,3-3.5c4.8,0,7.1,0,11.9,0c1.7,0,3,1.5,3,3.5c-0.1,13.3-0.1,26.6-0.2,40
		c3.8-0.1,5.7-0.1,9.6-0.1c0-13.3,0.1-26.6,0.1-39.9c0-1.9,1.4-3.5,3-3.5c4.8,0,7.1,0,11.9,0c1.7,0,3,1.5,3,3.4
		c0,34.5,0.1,68.9,0.1,103.4C299.6,113.4,298.2,115,296.5,115z M287.4,108.1c2.4,0,3.6,0,6,0c0-32.2,0-64.3,0-96.5
		c-2.4,0-3.5,0-5.9,0c0,13.3,0,26.6-0.1,39.8c0,1.9-1.4,3.5-3,3.5c-6.3,0-9.4,0.1-15.6,0.2c-1.7,0-3-1.5-3-3.4
		c0.1-13.4,0.2-26.7,0.3-40.1c-2.4,0-3.5,0-5.9,0c-0.3,32.4-0.5,64.8-0.8,97.2c2.4-0.1,3.6-0.2,6-0.3c0.1-14.8,0.2-29.6,0.3-44.4
		c0-1.9,1.4-3.5,3.1-3.5c6.3-0.1,9.4-0.2,15.7-0.2c1.7,0,3,1.5,3,3.4C287.5,78.7,287.4,93.4,287.4,108.1z"/>
</g>
<g>
	<path style="fill:#C1272D;" d="M327.6,113.5c-12.6-0.6-19.7-10.6-19.9-22.8c-0.1-20.5-0.1-41-0.2-61.6c0.1-11.9,6.8-22.3,19.3-22.2
		c12,0.1,20.3,10.7,19.6,22.6c0.2,20.8,0.5,41.7,0.7,62.5C347.4,104.2,340.3,114.1,327.6,113.5z M334.5,30.2
		c-0.1-7.4-3.1-10.8-7.6-10.8c-4.4,0-7.5,3.3-7.4,10.6c0.1,20,0.2,40.1,0.3,60.1c0,7.3,3.2,10.7,7.7,10.9c4.5,0.2,7.6-3,7.5-10.4
		C334.9,70.5,334.7,50.3,334.5,30.2z"/>
	<path style="fill:#FFFFFF;" d="M327.6,117c-14.6,0.3-22.8-13.3-22.9-26.3c0-20.5-0.1-41-0.1-61.5c0.1-12.6,8.1-26.3,22.3-25.6
		c13.7,0.6,23.4,12.4,22.6,26.2c0.2,20.9,0.5,41.8,0.7,62.7C351.4,106.2,341.6,117.4,327.6,117z M326.9,10.4
		c-10.6-0.4-16.8,8.8-16.3,18.7c0.1,20.5,0.1,41.1,0.2,61.6c-0.4,10.2,6.5,18.8,16.8,19.3s17.1-8.1,16.5-18.1
		c-0.2-20.8-0.4-41.6-0.6-62.4C343.8,19.6,337.7,10.1,326.9,10.4z M327.6,104.5c-5.2-0.2-10.7-4.1-10.8-14.5
		c-0.1-20-0.2-40.1-0.3-60.1c0-10.4,5.4-14.1,10.4-14c5.1,0,10.5,3.8,10.6,14.3c0.2,20.2,0.4,40.4,0.5,60.6
		C338.2,101.3,332.7,104.7,327.6,104.5z M327,22.8c-1.2,0-4.5,0-4.4,7.2c0.1,20.1,0.2,40.1,0.4,60.2c0,7.2,3.3,7.3,4.6,7.4
		c1.2,0,4.5,0.2,4.5-7c-0.2-20.1-0.3-40.3-0.5-60.4C331.5,22.9,328.2,22.9,327,22.8z"/>
</g>
<g>
	<path style="fill:#C1272D;" d="M358.7,114.3c-0.5-35.3-0.9-70.6-1.4-105.9c4.8,0,7.1,0,11.9,0.1c0.5,31.5,0.9,62.9,1.4,94.4
		c7.2,0.7,10.8,1.1,18,1.9c0.1,5.1,0.1,7.7,0.2,12.9C378.8,116.2,368.7,115.1,358.7,114.3z"/>
	<path style="fill:#FFFFFF;" d="M388.9,121.2c-10-1.4-20.1-2.5-30.1-3.4c-1.7-0.2-3.1-1.8-3.1-3.8c-0.4-35.2-0.9-70.4-1.3-105.7
		c0-1.9,1.3-3.5,3-3.5c4.8,0,7.1,0,11.9,0c1.7,0,3,1.6,3.1,3.6c0.5,30.4,0.9,60.7,1.4,91.1c6,0.6,8.9,0.9,14.9,1.5
		c1.7,0.2,3.1,2,3.1,4c0.1,5.2,0.1,7.7,0.2,12.9C391.9,120,390.5,121.4,388.9,121.2z M361.7,111c9.6,0.9,14.4,1.4,24,2.5
		c0-2.2-0.1-3.4-0.1-5.6c-6-0.7-9-1-14.9-1.6c-1.7-0.2-3.1-1.9-3.1-3.8c-0.4-30.2-0.9-60.4-1.3-90.5c-2.4,0-3.5,0-5.9-0.1
		C360.8,45,361.2,78,361.7,111z"/>
</g>
<g>
	<path style="fill:#C1272D;" d="M396,118.5c-0.7-36.6-1.4-73.2-2-109.9c4.8,0,7.1,0.1,11.9,0.1c0.7,37.2,1.5,74.4,2.2,111.5
		C403.2,119.6,400.8,119.2,396,118.5z"/>
	<path style="fill:#FFFFFF;" d="M408.1,124.1c-4.8-0.8-7.2-1.2-12.1-1.9c-1.7-0.2-3.1-2.1-3.1-4.1c-0.7-36.5-1.3-73-2-109.5
		c0-2,1.3-3.6,2.9-3.6c4.8,0,7.1,0,11.9,0.1c1.7,0,3,1.7,3.1,3.8c0.7,37.3,1.5,74.7,2.2,112C411.1,122.9,409.8,124.3,408.1,124.1z
		 M398.9,115.3c2.4,0.3,3.6,0.5,6,0.9c-0.7-34.6-1.3-69.1-2-103.7c-2.4,0-3.5-0.1-5.9-0.1C397.6,46.7,398.3,81,398.9,115.3z"/>
</g>
<g>
	<path style="fill:#C1272D;" d="M440.3,126.2c-7.8-1.6-11.8-2.4-19.7-3.8C419.8,84.6,419,46.8,418.2,9c7.8,0.1,11.7,0.2,19.5,0.3
		c14.1,0.4,20.3,14,19.8,26.6c0.5,22.8,1,45.5,1.5,68.2C460.2,116.3,454.3,129.3,440.3,126.2z M445.6,35.9
		c-0.2-7.4-2.6-12.3-7.6-12.5c-3-0.1-4.6-0.2-7.6-0.3c0.6,29.3,1.3,58.6,1.9,87.9c3.1,0.5,4.6,0.8,7.6,1.4c5,0.9,7.3-3.3,7.1-10.8
		C446.6,79.7,446.1,57.8,445.6,35.9z"/>
	<path style="fill:#FFFFFF;" d="M440.3,130.1c-7.8-1.7-11.8-2.4-19.7-3.9c-1.7-0.3-3.1-2.2-3.1-4.3c-0.8-37.7-1.5-75.3-2.3-113
		c0-2.1,1.3-3.8,2.9-3.7c7.8,0.1,11.7,0.1,19.5,0.2c16.6,0.3,22.8,16.2,22.8,30.7c0.5,22.9,1,45.7,1.5,68.6
		C463.4,118.6,456.2,133.6,440.3,130.1z M423.6,119.2c6.7,1.2,10,1.8,16.6,3.1c12.2,3.6,16.9-8.9,15.8-18.7
		c-0.5-22.6-1-45.3-1.5-67.9c0.5-10.9-4.6-22.2-16.7-22.6c-6.6-0.1-9.9-0.2-16.5-0.3C422.1,48.3,422.8,83.7,423.6,119.2z M440,116.3
		c-3.1-0.6-4.6-0.9-7.7-1.4c-1.7-0.3-3.1-2.3-3.1-4.4c-0.6-29.2-1.2-58.3-1.9-87.5c0-2.1,1.3-3.8,2.9-3.7c3,0.1,4.6,0.1,7.6,0.2
		c6.5,0.2,10.5,6.4,10.7,16.5c0.5,22,1,44.1,1.4,66.1C450.3,112.3,446.5,117.5,440,116.3z M435.2,107.7c1.8,0.3,2.8,0.5,4.6,0.8
		c1.3,0.2,4.3,0.8,4.2-7.4c-0.5-21.8-0.9-43.6-1.4-65.4c-0.2-8.2-3.2-8.3-4.5-8.4c-1.8-0.1-2.8-0.1-4.6-0.2
		C434.1,54,434.7,80.8,435.2,107.7z"/>
</g>
<g>
	<path style="fill:#C1272D;" d="M495.3,139.9c-1.2-11.3-2.3-22.6-3.5-33.8c-5.3-1.1-7.9-1.7-13.2-2.8c-0.7,10.5-1.5,20.9-2.2,31.4
		c-4.8-1.2-7.2-1.9-12-3c3.8-40.6,7.5-81.1,11.2-121.7c6.2,0.1,9.4,0.2,15.6,0.3c5.5,44.4,10.9,88.8,16.1,133.2
		C502.5,142,500.1,141.2,495.3,139.9z M485.9,52.7c-1-9.3-2.2-24.9-2.2-24.9c-0.1,0-0.2,0-0.3,0c0,0-0.5,15.7-1.1,24.6
		c-0.8,12.5-1.7,25-2.5,37.5c4.1,0.7,6.1,1.1,10.2,1.9C488.6,78.7,487.3,65.7,485.9,52.7z"/>
	<path style="fill:#FFFFFF;" d="M507.3,147.9c-4.7-1.5-7.1-2.2-11.9-3.7c-1.5-0.4-2.8-2.4-3-4.6c-1-9.9-2.1-19.9-3.1-29.8
		c-3.2-0.7-4.8-1.1-7.9-1.7c-0.7,9.3-1.3,18.6-2,27.9c-0.1,2-1.4,3.3-2.9,2.9c-4.8-1.3-7.2-1.9-12-3.1c-0.9-0.2-1.7-0.9-2.3-2
		c-0.6-1-0.9-2.3-0.8-3.4c3.8-40.4,7.5-80.7,11.2-121.1c0.2-2,1.4-3.5,2.9-3.5c6.2,0.1,9.4,0.1,15.6,0.2c1.5,0,2.8,1.6,3,3.7
		c5.5,44.7,10.9,89.3,16,134c0.2,1.3-0.1,2.6-0.6,3.4C509,147.8,508.1,148.1,507.3,147.9z M497.9,136.3c2.3,0.7,3.5,1,5.8,1.7
		c-4.9-41.2-9.9-82.4-15-123.5c-4.2-0.1-6.3-0.2-10.4-0.3c-3.4,38.1-6.9,76.2-10.4,114.3c2.3,0.6,3.5,0.8,5.9,1.4
		c0.8-11,1.2-16.5,2-27.7c0.1-2,1.4-3.4,2.9-3.1c5.3,1,7.9,1.6,13.2,2.7c1.5,0.3,2.8,2.2,3,4.4C495.8,116.2,496.8,126.2,497.9,136.3
		z M490.1,96c-4.1-0.8-6.1-1.2-10.2-1.9c-0.9-0.2-1.7-0.8-2.3-1.8c-0.6-1-0.9-2.2-0.8-3.4c0.8-12.4,1.7-24.9,2.5-37.3
		c0.6-8.6,1.1-24.1,1.1-24.2c0.1-2.2,1.3-3.8,2.9-3.8c0.1,0,0.2,0,0.3,0c1.6,0.1,2.9,1.9,3.1,4.1c0,0.2,1.1,15.8,2.1,24.9l0,0
		c1.4,13.1,2.7,26.1,4.1,39.2c0.1,1.2-0.1,2.4-0.7,3.2C491.7,95.8,490.9,96.2,490.1,96z M483.1,86.2c1.4,0.2,2.1,0.4,3.4,0.6
		c-0.8-8.1-1.3-12.1-2.1-20.1C483.9,74.6,483.6,78.5,483.1,86.2z"/>
</g>
<g>
	<path style="fill:#C1272D;" d="M529.6,97.6c0.3,17.8,0.5,35.6,0.8,53.5c-4.6-1.6-7-2.4-11.6-3.9c-0.3-17.4-0.6-34.7-0.9-52.1
		c-5.4-28.2-11-56.5-16.8-84.6c5,0.1,7.4,0.2,12.4,0.3c2.6,15.1,5.1,30.2,7.6,45.3c1.5,9.7,2.4,20.2,2.4,20.2c0.1,0,0.2,0,0.3,0
		c0,0,0.7-10.2,1.9-19.6c2-15.1,4-30.3,6.1-45.4c5,0.1,7.4,0.2,12.4,0.3C539.3,40.2,534.5,68.9,529.6,97.6z"/>
	<path style="fill:#FFFFFF;" d="M530.5,155.7c-4.6-1.7-7-2.5-11.6-4.1c-1.6-0.6-3-3-3-5.5c-0.3-17-0.6-34.1-0.9-51.1
		c-5.4-27.9-11-55.7-16.7-83.5c-0.3-1.3-0.1-2.7,0.4-3.8C499.2,6.6,500,6,501,6c5,0.1,7.4,0.1,12.4,0.2c1.4,0,2.6,1.5,3,3.6
		c2.3,13.7,4.6,27.5,6.9,41.2c1.8-13.6,3.7-27.3,5.5-40.9c0.3-2.1,1.5-3.6,2.9-3.6c5,0.1,7.4,0.1,12.4,0.2c0.9,0,1.8,0.7,2.4,2
		c0.6,1.2,0.8,2.8,0.5,4.3c-4.7,28.7-9.5,57.4-14.4,86c0.3,17.7,0.5,35.4,0.8,53.2C533.4,154.7,532.1,156.3,530.5,155.7z
		 M521.6,143.5c2.3,0.7,3.5,1.1,5.8,1.9c-0.2-16.2-0.5-32.3-0.7-48.5c0-0.4,0-0.8,0.1-1.2c4.5-26.5,9-53,13.4-79.5
		c-2.4-0.1-3.6-0.1-6-0.2c-1.9,14-3.7,28-5.6,42c-1.2,9.1-1.8,19.2-1.8,19.3c-0.2,2.3-1.4,3.8-2.9,3.5c-0.1,0-0.2,0-0.3,0
		c-1.5-0.3-2.8-2.3-3-4.6c0-0.1-0.8-10.3-2.3-19.5c-2.3-13.8-4.6-27.7-7-41.5c-2.4-0.1-3.7-0.1-6.1-0.2c5.4,26.5,10.6,53,15.7,79.5
		c0.1,0.4,0.1,0.8,0.1,1.2C521.1,111.6,521.4,127.6,521.6,143.5z"/>
</g>
<g>
	<path style="fill:#C1272D;" d="M566.3,166.5c-14-5.9-19.3-24.5-19-38.7c-0.1-6.6-0.1-9.9-0.2-16.5c4.6,1.2,6.9,1.8,11.5,3.1
		c0.1,6.3,0.1,9.5,0.1,15.9c0.1,10.6,3.5,16.6,7.5,18.1c5.3,2,8-3.2,7.9-14.9c0-9.8-1.1-16.6-5.5-25.8c-4.3-9.2-8.7-18.3-13.3-27.3
		c-6-11.2-8.2-23.9-8.4-36.2c-0.2-11.6,2.7-34.5,18.8-33.8c16.2,0.7,19.3,22.2,19.1,34.8c0,7.3,0,10.9,0,18.2
		c-4.6-0.7-6.9-1.1-11.5-1.8c0-6.6,0-9.9-0.1-16.4c-0.1-11-3-16.2-7.3-16.5c-4.9-0.3-7.3,6.4-7.3,16.8c0.1,9.4,1.2,15.7,5.6,24.4
		c4.6,9.1,9,18.3,13.3,27.6c6,12.5,8.5,26.6,8,40C585,147,583.4,173.6,566.3,166.5z"/>
	<path style="fill:#FFFFFF;" d="M566.3,171.6c-16.5-7.3-21.9-28.4-22-44.7c-0.1-6.6-0.1-9.9-0.2-16.4c0-2.7,1.3-4.5,2.9-4.1
		c4.6,1.2,6.9,1.8,11.5,3c1.6,0.4,2.9,3,3,5.8c0.1,6.4,0.1,9.6,0.1,16c0,3.9,0.7,10.7,4.5,12c1.7,0.6,5.1,1.8,5-10.8
		c0-8.2-0.7-13.6-4.7-21.9c-4.3-9.2-8.7-18.3-13.3-27.3c-6.7-12.7-8.7-25.6-9.2-39.4s3.5-38.7,21.7-38.6c18.6,0.2,22.2,26,22.1,40.2
		c0,7.3,0,11,0,18.3c0,3-1.3,5.1-2.9,4.9c-4.6-0.8-6.9-1.2-11.5-1.9c-1.6-0.3-3-2.8-3-5.6c0-6.5-0.1-9.8-0.1-16.3
		c-0.1-10.7-3.1-11-4.3-11.1c-3.7-0.3-4.4,6.4-4.3,12c0.1,8,0.8,13.1,4.8,20.9c4.6,9.1,9,18.4,13.3,27.6c6.4,13.8,9.3,29.2,8.7,44.1
		C587.9,149,586.1,180.3,566.3,171.6z M550.1,116.9c0.1,4.7,0.1,7.1,0.1,11.8c0.2,12.6,3.8,27.3,16.1,32.7
		c14.2,6.3,16.2-16.5,16.2-25.2c0-12.3-1.8-24.7-7.2-36c-4.3-9.3-8.7-18.4-13.3-27.6c-4.4-7.8-6.6-19-6.5-27.8
		c0.2-13.3,3.8-21.9,10.2-21.5c2.4,0.1,10.3,2.1,10.3,21.9c0,4.5,0,6.8,0,11.3c2.3,0.3,3.4,0.5,5.6,0.8c0-5.1,0-7.6,0-12.7
		c0.6-10.9-3.1-29.1-16.1-29.4c-13.6-0.3-15.8,18.2-15.8,29c0,11.4,2.1,22.7,7.5,32.9c4.6,9.1,9,18.2,13.3,27.4
		c4.4,8.5,6.4,20.3,6.3,29.7c-0.4,20.5-7.5,20.3-10.8,19c-7.1-2.7-10.3-14-10.4-24.1c0-4.3-0.1-6.5-0.1-10.8
		C553.4,117.8,552.3,117.5,550.1,116.9z"/>
</g>
<path style="fill:#C1272D;" d="M31.9,161.8c0.2-23,0.4-46,0.6-69c-6.1,1.4-9.1,2.1-15.1,3.5c-0.1,23.9-0.2,47.7-0.3,71.6
	c-4.6,1.9-6.8,2.9-11.3,4.9C5.8,119.4,5.9,66,6,12.6c4.7-0.1,7.1-0.2,11.8-0.4c-0.1,21.7-0.2,43.4-0.3,65.1
	c6.1-1.2,9.1-1.7,15.2-2.8c0.2-20.9,0.4-41.9,0.5-62.8c4.7-0.1,7.1-0.2,11.8-0.3c-0.5,48.6-1.1,97.2-1.6,145.8
	C38.8,159.1,36.5,159.9,31.9,161.8z"/>
<path style="fill:#C1272D;" d="M79.9,144.7c-0.8-11.2-1.5-22.4-2.3-33.7c-5.2,1.3-7.9,1.9-13.1,3.3c-1.1,12.2-2.3,24.4-3.4,36.6
	c-4.7,1.6-7,2.5-11.7,4.2C54.4,107,59.6,59,65,11c6.2-0.2,9.3-0.2,15.6-0.4c3.7,43.5,7.4,87,11.1,130.4
	C87,142.5,84.6,143.2,79.9,144.7z M73.8,56.4c-0.7-9.7-1.2-26.5-1.2-26.5c-0.1,0-0.2,0-0.3,0c0,0-1.1,17.1-2.1,26.9
	c-1.3,14-2.6,28-3.9,42c4-0.9,6.1-1.3,10.1-2.2C75.5,83.2,74.7,69.8,73.8,56.4z"/>
<path style="fill:#C1272D;" d="M117.8,85.7c-2.8,0.5-4.2,0.7-7,1.2c-0.3,16.4-0.7,32.7-1,49.1c-4.7,1.3-7.1,1.9-11.8,3.3
	c0.9-43,1.7-86,2.6-129.1c7.6-0.2,11.3-0.2,18.9-0.4c14,0,19.7,13.4,18.6,25.8c-0.2,8.4-0.3,12.6-0.5,21
	C138,69.7,131.5,83.1,117.8,85.7z M126.1,37.1c0.2-7.7-2.1-12.5-7-12.3c-2.8,0.1-4.2,0.2-7,0.3c-0.3,15.5-0.6,30.9-1,46.4
	c2.8-0.4,4.2-0.6,7-1c5-0.7,7.4-5.9,7.6-13.6C125.8,49.1,125.9,45.1,126.1,37.1z"/>
<path style="fill:#C1272D;" d="M165,79c-2.8,0.3-4.3,0.5-7.1,0.9c-0.3,15-0.6,30.1-1,45.1c-4.8,0.9-7.2,1.4-12,2.5
	c0.9-39.4,1.7-78.8,2.6-118.1c7.6-0.1,11.3-0.2,18.9-0.3c13.3,0,19.8,11.8,18.7,24c-0.2,7.8-0.2,11.7-0.4,19.5
	C185.3,65.4,178.2,77.2,165,79z M173.2,34.3c0.1-7.1-2.1-11.6-7.1-11.4c-2.8,0.1-4.2,0.1-7.1,0.3c-0.3,14.2-0.6,28.4-0.9,42.7
	c2.8-0.3,4.2-0.4,7.1-0.7c5-0.5,7.5-5.2,7.6-12.4C173,45.4,173.1,41.7,173.2,34.3z"/>
<path style="fill:#C1272D;" d="M214.4,75.1c-0.2,13.7-0.4,27.4-0.7,41.1c-4.8,0.6-7.3,0.9-12.1,1.5c0.2-13.9,0.5-27.8,0.7-41.6
	c-4.9-22.4-9.6-44.8-14.3-67.2c5-0.1,7.5-0.1,12.4-0.1c2.1,11.9,4.2,23.7,6.3,35.6c1.3,7.4,1.8,15.5,1.8,15.5c0.1,0,0.2,0,0.3,0
	c0,0,1-8.2,2.5-15.7c2.4-11.8,4.9-23.7,7.4-35.5c5,0,7.5-0.1,12.4-0.1C225.6,30.6,220,52.8,214.4,75.1z"/>
<path style="fill:#C1272D;" d="M284.3,111.6c0-15.9,0.1-31.7,0.1-47.6c-6.3,0.1-9.4,0.1-15.7,0.2c-0.1,15.9-0.2,31.8-0.3,47.8
	c-4.9,0.2-7.3,0.3-12.2,0.6c0.3-34.8,0.6-69.6,0.9-104.3c4.8,0,7.1,0,11.9,0c-0.1,14.5-0.2,29-0.3,43.5c6.3-0.1,9.4-0.1,15.6-0.2
	c0-14.4,0.1-28.9,0.1-43.3c4.8,0,7.1,0,11.9,0c0,34.4,0,68.9,0,103.3C291.6,111.5,289.2,111.5,284.3,111.6z"/>
<path style="fill:#C1272D;" d="M327.6,113.5c-12.6-0.6-19.7-10.6-19.9-22.8c-0.1-20.5-0.1-41-0.2-61.6c0.1-11.9,6.8-22.3,19.3-22.2
	c12,0.1,20.3,10.7,19.6,22.6c0.2,20.8,0.5,41.7,0.7,62.5C347.4,104.2,340.3,114.1,327.6,113.5z M334.5,30.2
	c-0.1-7.4-3.1-10.8-7.6-10.8c-4.4,0-7.5,3.3-7.4,10.6c0.1,20,0.2,40.1,0.3,60.1c0,7.3,3.2,10.7,7.7,10.9c4.5,0.2,7.6-3,7.5-10.4
	C334.9,70.5,334.7,50.3,334.5,30.2z"/>
<path style="fill:#C1272D;" d="M358.7,114.3c-0.5-35.3-0.9-70.6-1.4-105.9c4.8,0,7.1,0,11.9,0.1c0.5,31.5,0.9,62.9,1.4,94.4
	c7.2,0.7,10.8,1.1,18,1.9c0.1,5.1,0.1,7.7,0.2,12.9C378.8,116.2,368.7,115.1,358.7,114.3z"/>
<path style="fill:#C1272D;" d="M396,118.5c-0.7-36.6-1.4-73.2-2-109.9c4.8,0,7.1,0.1,11.9,0.1c0.7,37.2,1.5,74.4,2.2,111.5
	C403.2,119.6,400.8,119.2,396,118.5z"/>
<path style="fill:#C1272D;" d="M440.3,126.2c-7.8-1.6-11.8-2.4-19.7-3.8C419.8,84.6,419,46.8,418.2,9c7.8,0.1,11.7,0.2,19.5,0.3
	c14.1,0.4,20.3,14,19.8,26.6c0.5,22.8,1,45.5,1.5,68.2C460.2,116.3,454.3,129.3,440.3,126.2z M445.6,35.9
	c-0.2-7.4-2.6-12.3-7.6-12.5c-3-0.1-4.6-0.2-7.6-0.3c0.6,29.3,1.3,58.6,1.9,87.9c3.1,0.5,4.6,0.8,7.6,1.4c5,0.9,7.3-3.3,7.1-10.8
	C446.6,79.7,446.1,57.8,445.6,35.9z"/>
<path style="fill:#C1272D;" d="M495.3,139.9c-1.2-11.3-2.3-22.6-3.5-33.8c-5.3-1.1-7.9-1.7-13.2-2.8c-0.7,10.5-1.5,20.9-2.2,31.4
	c-4.8-1.2-7.2-1.9-12-3c3.8-40.6,7.5-81.1,11.2-121.7c6.2,0.1,9.4,0.2,15.6,0.3c5.5,44.4,10.9,88.8,16.1,133.2
	C502.5,142,500.1,141.2,495.3,139.9z M485.9,52.7c-1-9.3-2.2-24.9-2.2-24.9c-0.1,0-0.2,0-0.3,0c0,0-0.5,15.7-1.1,24.6
	c-0.8,12.5-1.7,25-2.5,37.5c4.1,0.7,6.1,1.1,10.2,1.9C488.6,78.7,487.3,65.7,485.9,52.7z"/>
<path style="fill:#C1272D;" d="M529.6,97.6c0.3,17.8,0.5,35.6,0.8,53.5c-4.6-1.6-7-2.4-11.6-3.9c-0.3-17.4-0.6-34.7-0.9-52.1
	c-5.4-28.2-11-56.5-16.8-84.6c5,0.1,7.4,0.2,12.4,0.3c2.6,15.1,5.1,30.2,7.6,45.3c1.5,9.7,2.4,20.2,2.4,20.2c0.1,0,0.2,0,0.3,0
	c0,0,0.7-10.2,1.9-19.6c2-15.1,4-30.3,6.1-45.4c5,0.1,7.4,0.2,12.4,0.3C539.3,40.2,534.5,68.9,529.6,97.6z"/>
<path style="fill:#C1272D;" d="M566.3,166.5c-14-5.9-19.3-24.5-19-38.7c-0.1-6.6-0.1-9.9-0.2-16.5c4.6,1.2,6.9,1.8,11.5,3.1
	c0.1,6.3,0.1,9.5,0.1,15.9c0.1,10.6,3.5,16.6,7.5,18.1c5.3,2,8-3.2,7.9-14.9c0-9.8-1.1-16.6-5.5-25.8c-4.3-9.2-8.7-18.3-13.3-27.3
	c-6-11.2-8.2-23.9-8.4-36.2c-0.2-11.6,2.7-34.5,18.8-33.8c16.2,0.7,19.3,22.2,19.1,34.8c0,7.3,0,10.9,0,18.2
	c-4.6-0.7-6.9-1.1-11.5-1.8c0-6.6,0-9.9-0.1-16.4c-0.1-11-3-16.2-7.3-16.5c-4.9-0.3-7.3,6.4-7.3,16.8c0.1,9.4,1.2,15.7,5.6,24.4
	c4.6,9.1,9,18.3,13.3,27.6c6,12.5,8.5,26.6,8,40C585,147,583.4,173.6,566.3,166.5z"/>
</svg>
