<?xml version="1.0" encoding="utf-8"?>
<!-- Generator: Adobe Illustrator 21.0.0, SVG Export Plug-In . SVG Version: 6.00 Build 0)  -->
<svg version="1.1" id="Layer_1" xmlns="http://www.w3.org/2000/svg" xmlns:xlink="http://www.w3.org/1999/xlink" x="0px" y="0px"
	 viewBox="0 0 114.3 106.4" style="enable-background:new 0 0 114.3 106.4;" xml:space="preserve">
<path style="fill:#231F20;" d="M86,72.5L45.5,92.9c-4.7,2.4-10.4,0.5-12.8-4.2L1.2,41.5C-1.6,35.8,0.6,28.9,6.3,26l49-24.7
	c5.7-2.9,12.6-0.7,15.5,5l19.4,53.3C92.5,64.4,90.7,70.1,86,72.5z"/>
<path style="fill:#403C3D;" d="M44.9,6.5l-8.1,4.1c5.7-2.9,12.6-0.6,15.5,5.1L71.7,69c2.4,4.7,0.5,10.4-4.2,12.8l8.1-4.1
	c4.7-2.4,6.6-8.1,4.2-12.8L60.4,11.6C57.5,5.9,50.6,3.6,44.9,6.5z"/>
<polygon style="fill:#C1272D;" points="32,87.7 89.7,58.5 81.6,36.1 18.8,67.8 "/>
<polygon style="fill:#C84D40;" points="79.4,63.7 71.2,41.3 63.2,45.4 71.3,67.8 "/>
<path style="fill:#231F20;" d="M111.7,59.5l-92,46.5c-2.3,1.2-5.1,0.2-6.2-2.1l-1.7-3.4c-1.2-2.3-0.2-5.1,2.1-6.2l92-46.5
	c2.3-1.2,5.1-0.2,6.2,2.1l1.7,3.4C114.9,55.5,114,58.3,111.7,59.5z"/>
</svg>
