<?xml version="1.0" encoding="utf-8"?>
<!-- Generator: Adobe Illustrator 21.0.0, SVG Export Plug-In . SVG Version: 6.00 Build 0)  -->
<svg version="1.1" id="Layer_1" xmlns="http://www.w3.org/2000/svg" xmlns:xlink="http://www.w3.org/1999/xlink" x="0px" y="0px"
	 viewBox="0 0 108.4 78" enable-background="new 0 0 108.4 78" xml:space="preserve">
<g>
	<g>
		<path fill="#231F20" d="M7.3,78c-2.6,0-5.2-1.4-6.5-3.9c-1.9-3.6-0.6-8,3-9.9l67.4-35.9l2-21.6c0.4-4,3.9-7,8-6.6
			c4,0.4,7,3.9,6.6,8l-2.4,25.5c-0.2,2.5-1.7,4.6-3.8,5.8L10.8,77.1C9.7,77.7,8.5,78,7.3,78z"/>
		<path fill="#231F20" d="M96.9,49.8c-1.1,0-2.3-0.3-3.3-0.8l-18.7-9.6c-2.5-1.3-4-3.9-4-6.7c0.1-2.8,1.7-5.3,4.3-6.5L98,15.7
			c3.7-1.7,8-0.1,9.7,3.6c1.7,3.7,0.1,8-3.6,9.7L95,33.2l5.3,2.7c3.6,1.8,5,6.3,3.2,9.9C102.1,48.3,99.6,49.8,96.9,49.8z"/>
	</g>
	<g>
		<path fill="#94662F" d="M7.3,75.5c-1.7,0-3.4-0.9-4.3-2.6c-1.3-2.4-0.4-5.3,2-6.6l68.6-36.5l2.1-22.9c0.3-2.7,2.6-4.6,5.3-4.4
			c2.7,0.3,4.7,2.6,4.4,5.3l-2.4,25.5c-0.2,1.6-1.1,3.1-2.6,3.9L9.6,75C8.9,75.4,8.1,75.5,7.3,75.5z"/>
		<path fill="#94662F" d="M96.9,47.3c-0.7,0-1.5-0.2-2.2-0.5L76,37.2c-1.7-0.9-2.7-2.6-2.7-4.4c0-1.9,1.1-3.5,2.8-4.3L99,17.9
			c2.4-1.1,5.3-0.1,6.5,2.4c1.1,2.4,0.1,5.3-2.4,6.5l-13.7,6.3l9.8,5c2.4,1.2,3.3,4.2,2.1,6.6C100.4,46.4,98.7,47.3,96.9,47.3z"/>
	</g>
</g>
</svg>
