<?xml version="1.0" encoding="utf-8"?>
<!-- Generator: Adobe Illustrator 21.0.0, SVG Export Plug-In . SVG Version: 6.00 Build 0)  -->
<svg version="1.1" id="Layer_1" xmlns="http://www.w3.org/2000/svg" xmlns:xlink="http://www.w3.org/1999/xlink" x="0px" y="0px"
	 viewBox="0 0 111.6 72.5" enable-background="new 0 0 111.6 72.5" xml:space="preserve">
<g>
	<g>
		<path fill="#231F20" d="M104.3,72.5c-1,0-2-0.2-3-0.6L27.9,39.3c-2.3-1-3.8-3.1-4.3-5.5L19.4,8.5c-0.7-4,2-7.8,6-8.4
			c4-0.7,7.8,2,8.4,6l3.6,21.4l69.8,31c3.7,1.6,5.4,6,3.7,9.7C109.8,70.9,107.1,72.5,104.3,72.5z"/>
		<path fill="#231F20" d="M12.9,50.9c-2.5,0-4.9-1.3-6.3-3.5c-2.1-3.5-1-8,2.5-10.1l5.1-3.1l-9.4-3.5C1,29.2-1,25,0.5,21.2
			s5.6-5.7,9.4-4.3l23.5,8.8c2.6,1,4.5,3.4,4.7,6.2s-1.1,5.5-3.5,6.9L16.7,49.8C15.5,50.5,14.2,50.9,12.9,50.9z"/>
	</g>
	<g>
		<path fill="#94662F" d="M104.3,70.1c-0.7,0-1.3-0.1-2-0.4L28.9,37.1c-1.5-0.7-2.6-2-2.8-3.7L21.8,8.1c-0.4-2.7,1.4-5.2,4-5.6
			c2.7-0.4,5.2,1.4,5.6,4l3.8,22.7l71,31.5c2.5,1.1,3.6,4,2.5,6.4C107.9,69,106.2,70.1,104.3,70.1z"/>
		<path fill="#94662F" d="M12.9,48.4c-1.6,0-3.3-0.8-4.2-2.3c-1.4-2.3-0.7-5.3,1.6-6.7l9.4-5.7L5.6,28.4c-2.5-0.9-3.8-3.8-2.9-6.3
			c0.9-2.5,3.8-3.8,6.3-2.9l23.5,8.8c1.7,0.7,3,2.3,3.1,4.1c0.2,1.9-0.7,3.7-2.3,4.6L15.4,47.7C14.6,48.2,13.8,48.4,12.9,48.4z"/>
	</g>
</g>
</svg>
