<?xml version="1.0" encoding="utf-8"?>
<!-- Generator: Adobe Illustrator 21.0.0, SVG Export Plug-In . SVG Version: 6.00 Build 0)  -->
<svg version="1.1" id="Layer_1" xmlns="http://www.w3.org/2000/svg" xmlns:xlink="http://www.w3.org/1999/xlink" x="0px" y="0px"
	 viewBox="0 0 62.2 83.5" enable-background="new 0 0 62.2 83.5" xml:space="preserve">
<path fill="#231F20" d="M42.2,43.2c-1,0-2-0.2-3-0.6l-12-5.3c-2.3-1-3.9-3.2-4.3-5.7c-0.4-2.5,0.6-5,2.6-6.6l6.1-5.1
	c3.1-2.6,7.6-2.2,10.2,0.8c0.4-1.3,1.2-2.5,2.3-3.5c3.1-2.6,7.7-2.1,10.3,1l6.1,7.4c1.5,1.8,2,4.1,1.5,6.3s-2.1,4.1-4.2,5l-12.7,5.6
	C44.2,43,43.2,43.2,42.2,43.2z"/>
<path fill="#94662F" d="M42.2,40.8c-0.7,0-1.3-0.1-2-0.4l-12-5.3c-1.5-0.7-2.6-2.1-2.9-3.8c-0.2-1.7,0.4-3.3,1.7-4.4l6.1-5.1
	c2.1-1.7,5.1-1.4,6.9,0.6c1.7,2.1,1.5,5.1-0.6,6.9l-0.1,0.1l2.9,1.3l4.9-2.2L45,26c-1.7-2.1-1.4-5.2,0.7-6.9
	c2.1-1.7,5.2-1.4,6.9,0.7l6.1,7.4c1,1.2,1.3,2.7,1,4.2c-0.4,1.5-1.4,2.7-2.8,3.3l-12.7,5.6C43.5,40.6,42.8,40.8,42.2,40.8z"/>
<path fill="#231F20" d="M25.9,83.5c-2.5,0-4.8-1.3-6.2-3.4L1.1,50.8C-1,47.4,0,42.8,3.4,40.7c3.4-2.2,7.9-1.2,10.1,2.3l11.2,17.7
	l11.8-26.8l-1.6-26c-0.3-4,2.8-7.5,6.9-7.8c4-0.3,7.5,2.8,7.8,6.9l1.7,27.8c0.1,1.2-0.1,2.3-0.6,3.4l-18,41
	c-1.1,2.5-3.5,4.2-6.2,4.4C26.3,83.5,26.1,83.5,25.9,83.5z"/>
<path fill="#94662F" d="M25.9,81c-1.7,0-3.2-0.8-4.1-2.3L3.2,49.5c-1.4-2.3-0.8-5.3,1.5-6.7C7,41.3,10,42,11.4,44.2l13.7,21.6
	L39,34.2L37.3,7.6c-0.2-2.7,1.9-5,4.6-5.2c2.7-0.2,5,1.9,5.2,4.6l1.7,27.8c0,0.8-0.1,1.6-0.4,2.3l-18,41c-0.7,1.7-2.3,2.8-4.1,2.9
	C26.2,81,26,81,25.9,81z"/>
<path fill="#94662F" d="M42.2,40.8c-0.7,0-1.3-0.1-2-0.4l-12-5.3c-2.5-1.1-3.6-4-2.5-6.4c1.1-2.5,4-3.6,6.4-2.5l10,4.4l10.8-4.8
	c2.5-1.1,5.3,0,6.4,2.5c1.1,2.5,0,5.3-2.5,6.4l-12.7,5.6C43.5,40.6,42.8,40.8,42.2,40.8z"/>
</svg>
