<?xml version="1.0" encoding="utf-8"?>
<!-- Generator: Adobe Illustrator 21.0.0, SVG Export Plug-In . SVG Version: 6.00 Build 0)  -->
<svg version="1.1" id="Layer_1" xmlns="http://www.w3.org/2000/svg" xmlns:xlink="http://www.w3.org/1999/xlink" x="0px" y="0px"
	 viewBox="0 0 160 304.5" enable-background="new 0 0 160 304.5" xml:space="preserve">
<g>
	<g>
		<circle fill="#010101" cx="81.5" cy="60" r="60"/>
		
			<ellipse transform="matrix(0.9987 -5.026446e-02 5.026446e-02 0.9987 -11.1855 4.305)" fill="#010101" cx="80" cy="224.5" rx="80" ry="80"/>
		
			<ellipse transform="matrix(0.8707 -0.4918 0.4918 0.8707 -63.3896 58.0659)" fill="#010101" cx="78.7" cy="149.6" rx="70" ry="70"/>
		
			<ellipse transform="matrix(0.9987 -5.026446e-02 5.026446e-02 0.9987 -11.1855 4.305)" fill="#E3EFF4" cx="80" cy="224.5" rx="75" ry="75"/>
		
			<ellipse transform="matrix(0.8707 -0.4918 0.4918 0.8707 -63.3896 58.0659)" fill="#F1F8FC" cx="78.7" cy="149.6" rx="65" ry="65"/>
		
			<ellipse transform="matrix(0.9987 -5.026446e-02 5.026446e-02 0.9987 -11.1855 4.305)" fill="#FFFFFF" cx="80" cy="224.5" rx="70" ry="70"/>
		
			<ellipse transform="matrix(0.8707 -0.4918 0.4918 0.8707 -63.3896 58.0659)" fill="#E3EFF4" cx="78.7" cy="149.6" rx="65" ry="65"/>
		
			<ellipse transform="matrix(0.8707 -0.4918 0.4918 0.8707 -63.3896 58.0659)" fill="#FFFFFF" cx="78.7" cy="149.6" rx="60" ry="60"/>
		<circle fill="#E3EFF4" cx="81.5" cy="60" r="55"/>
		<circle fill="#FFFFFF" cx="81.5" cy="60" r="50"/>
	</g>
	<g>
		
			<ellipse transform="matrix(0.8707 -0.4918 0.4918 0.8707 -52.0034 69.1287)" fill="#231F20" cx="105.5" cy="133.5" rx="8.4" ry="8.4"/>
		
			<ellipse transform="matrix(0.8707 -0.4918 0.4918 0.8707 -51.8256 68.8001)" fill="#595A5C" cx="104.9" cy="133" rx="7.4" ry="7.4"/>
		<path fill="#A3A5A8" d="M99.8,137c-1.8-3.2-0.7-7.3,2.5-9.2c2.5-1.4,5.6-1,7.7,0.8c-2-2.5-5.6-3.2-8.5-1.6
			c-3.2,1.8-4.4,5.9-2.5,9.2c0.4,0.7,0.9,1.3,1.5,1.7C100.3,137.7,100,137.4,99.8,137z"/>
	</g>
	<g>
		
			<ellipse transform="matrix(0.8707 -0.4918 0.4918 0.8707 -64.0944 75.9332)" fill="#231F20" cx="112.4" cy="159.9" rx="8.4" ry="8.4"/>
		
			<ellipse transform="matrix(0.8707 -0.4918 0.4918 0.8707 -63.9166 75.6047)" fill="#595A5C" cx="111.8" cy="159.4" rx="7.4" ry="7.4"/>
		<path fill="#A3A5A8" d="M106.7,163.4c-1.8-3.2-0.7-7.3,2.5-9.2c2.5-1.4,5.6-1,7.7,0.8c-2-2.5-5.6-3.2-8.5-1.6
			c-3.2,1.8-4.4,5.9-2.5,9.2c0.4,0.7,0.9,1.3,1.5,1.7C107.2,164.1,106.9,163.8,106.7,163.4z"/>
	</g>
	<g>
		
			<ellipse transform="matrix(0.8707 -0.4918 0.4918 0.8707 -77.5261 73.9385)" fill="#231F20" cx="101.8" cy="184.4" rx="8.4" ry="8.4"/>
		
			<ellipse transform="matrix(0.8707 -0.4918 0.4918 0.8707 -77.3483 73.61)" fill="#595A5C" cx="101.3" cy="183.9" rx="7.4" ry="7.4"/>
		<path fill="#A3A5A8" d="M96.2,188c-1.8-3.2-0.7-7.3,2.5-9.2c2.5-1.4,5.6-1,7.7,0.8c-2-2.5-5.6-3.2-8.5-1.6
			c-3.2,1.8-4.4,5.9-2.5,9.2c0.4,0.7,0.9,1.3,1.5,1.7C96.7,188.6,96.4,188.3,96.2,188z"/>
	</g>
	
		<ellipse transform="matrix(0.9676 -0.2524 0.2524 0.9676 -6.945 28.3635)" fill="#010101" stroke="#010101" stroke-width="0.7612" stroke-miterlimit="10" cx="107.1" cy="41.2" rx="9.1" ry="12.8"/>
	
		<ellipse transform="matrix(0.9676 -0.2524 0.2524 0.9676 -6.6572 28.3869)" fill="#FFFFFF" cx="107.3" cy="40.1" rx="7.6" ry="10.7"/>
	<path fill="#FFFFFF" d="M105.7,39.3c1.2,0.6,2.2,1.9,2.7,3.6c0.7,2.6-0.3,5.1-2.1,5.6c-0.3,0.1-0.5,0.1-0.8,0.1
		c0.6,0.3,1.3,0.4,1.9,0.2c1.8-0.5,2.8-3,2.1-5.6C108.9,41,107.3,39.4,105.7,39.3z"/>
	<ellipse transform="matrix(0.9676 -0.2524 0.2524 0.9676 -6.8696 28.0745)" fill="#FFFFFF" cx="106" cy="40.8" rx="1.1" ry="1.5"/>
	
		<ellipse transform="matrix(0.9528 -0.3036 0.3036 0.9528 -9.9107 28.8245)" fill="#010101" stroke="#010101" stroke-miterlimit="10" cx="87.8" cy="46.3" rx="11.9" ry="16.8"/>
	
		<ellipse transform="matrix(0.9528 -0.3036 0.3036 0.9528 -9.6356 28.4584)" fill="#FFFFFF" cx="86.7" cy="45.2" rx="10" ry="14.1"/>
	<g>
		
			<ellipse transform="matrix(0.9499 -0.3125 0.3125 0.9499 -10.8342 30.9525)" fill="#010101" cx="91.2" cy="49.3" rx="7.1" ry="10"/>
		<path fill="#FFFFFF" d="M90,40.9c2,0.8,3.7,2.8,4.6,5.5c1.3,4.1,0.1,8.1-2.8,9.1c-0.4,0.1-0.8,0.2-1.3,0.2c1,0.4,2.1,0.5,3,0.2
			c2.9-1,4.2-5,2.8-9.1C95.3,43.3,92.6,40.9,90,40.9z"/>
		
			<ellipse transform="matrix(0.9499 -0.3125 0.3125 0.9499 -9.0001 30.4805)" fill="#FFFFFF" cx="90.6" cy="43.3" rx="1.8" ry="2.5"/>
	</g>
	<g>
		
			<ellipse transform="matrix(0.9499 -0.3125 0.3125 0.9499 -8.5384 35.4707)" fill="#010101" cx="106.4" cy="44.4" rx="5.4" ry="7.6"/>
		<path fill="#FFFFFF" d="M105.5,38c1.5,0.6,2.9,2.1,3.5,4.2c1,3.1,0.1,6.2-2.1,6.9c-0.3,0.1-0.6,0.1-1,0.1c0.8,0.3,1.6,0.4,2.3,0.1
			c2.2-0.7,3.2-3.8,2.1-6.9C109.5,39.8,107.5,38,105.5,38z"/>
		
			<ellipse transform="matrix(0.9499 -0.3125 0.3125 0.9499 -7.1422 35.1114)" fill="#FFFFFF" cx="106" cy="39.8" rx="1.3" ry="1.9"/>
	</g>
	<path fill="#010101" d="M78.7,79.6c2.3,5.8,12,21.7,38.3,0c0,0-10.4,3.4-19.9,0C87.6,76.1,76.4,73.8,78.7,79.6z"/>
	<path fill="none" stroke="#010101" stroke-width="2" stroke-linecap="round" stroke-linejoin="round" stroke-miterlimit="10" d="
		M115.9,78c0,0,0.2,3.3,3.1,2.3"/>
	<path fill="none" stroke="#010101" stroke-width="2" stroke-linecap="round" stroke-linejoin="round" stroke-miterlimit="10" d="
		M72.1,78.4c0,0,5.4,3,10.6-5.3"/>
</g>
</svg>
